<svg xmlns="http://www.w3.org/2000/svg" viewBox="0 0 518.24292 126.26026" height="126.26" width="518.243"><g fill-rule="evenodd"><path d="M177.043 14.99L173.191 0l88.674 10.577s3.572.49 3.15 4.903c-.42 4.412-7.914 24.235-7.914 24.235s-3.782 2.17-5.814.629c-2.03-1.54 4.483-13.517.91-14.848-3.64-1.33-47.207 4.972-47.207 4.972zM266.347 102.892l14.218-21.433 83.28 8.685s3.502.42 3.082 4.833c-.42 4.412-7.844 24.235-7.844 24.235s-3.783 2.241-5.884.7c-2.031-1.541 4.552-13.517.91-14.919-2.592-.91-25.356 1.962-38.242 3.712-.071.07-14.08 9.526-16.6 10.716-2.452 1.122-37.403 6.515-37.403 6.515s-1.61-6.795-2.732-9.245z" fill="#c9c3c4"/><path d="M173.19 0l107.376 81.46s-6.584 16.528-11.558 29.136c-3.292 8.195-4.973 13.728-7.144 15.34-5.673 4.062-50.15-31.169-49.87-37.262.21-6.095 4.973-18.702 2.032-21.924-2.943-3.152-5.884-1.05-8.616.91-2.662 2.032-7.984 5.114-14.358 2.803-6.374-2.312-30.678-25.005-31.17-25.705-.49-.702-2.03-6.375-.63-9.947 2.032-5.463 13.939-34.81 13.939-34.81" fill="#fff"/><path d="M178.444 14.78c.98.28 23.675 18.56 23.675 18.56s.91 1.4.14 4.343c-.702 2.872-8.126 21.643-8.126 21.643s-1.12 2.101-4.272.42c-3.152-1.61-20.593-18.91-20.593-18.91s-2.381-2.033-1.05-5.674c.49-1.33 2.24-5.533 3.922-10.156 1.33-3.432 2.452-7.355 3.852-9.105.77-1.051 1.472-1.332 2.452-1.122" fill="#0078ae"/><path d="M231.326 64.229c.77-.98 1.19-3.292 4.132-3.783 3.012-.42 6.024 2.102 6.024 2.102l23.814 17.86s1.47 2.242.98 5.044c-.49 2.732-10.506 23.744-10.506 23.744s-3.011 2.94-5.463 1.05c-2.452-1.961-26.125-21.152-26.125-21.152s-.982-.77-.491-4.273c.49-3.501 7.144-19.261 7.635-20.592" fill="#ff344e"/></g><path d="M0 63.13h141.243M377 63.13h141.243" fill="none" stroke="#2c3e50" stroke-width="4.9999875"/></svg>