<svg xmlns="http://www.w3.org/2000/svg" width="558.243" height="232.756" viewBox="0 0 558.24292 232.75615"><path d="M295.749 183.172c2.462 4.432 28.213 40.377 28.213 40.377l3.693-1.28s-25.259-42.74-26.293-41.903c-1.083.787-5.367 3.25-5.613 2.806" fill="#ffeab9" fill-rule="evenodd"/><path d="M322.289 221.727l4.333-2.463s6.746-.197 6.795.444c.05.64-8.37 5.81-8.37 5.81s-2.66-2.364-2.758-3.791" fill="#ff344e" fill-rule="evenodd"/><path d="M261.133 182.237c-2.51 4.431-28.263 40.376-28.263 40.376l-3.643-1.28s25.259-42.74 26.293-41.903c1.035.788 5.367 3.25 5.613 2.807" fill="#ffeab9" fill-rule="evenodd"/><path d="M234.544 220.791l-4.284-2.462s-6.795-.197-6.844.443c-.05.64 8.37 5.81 8.37 5.81s2.66-2.412 2.758-3.791" fill="#ff344e" fill-rule="evenodd"/><path d="M246.608 79.72l-32.4-69.525s4.087-6.156 2.954-7.387c-1.182-1.23-5.564 3.595-5.564 3.595S207.66.149 205.936.002c-1.773-.148 2.166 8.025 2.166 8.025s-5.366-5.71-7.287-4.086c-1.87 1.575 5.17 6.302 5.17 6.302s-6.647 1.429-6.5 3.3c.148 1.82 6.993.59 6.993.59s-4.038 1.576-4.038 4.137c-.049 2.56 7.336-3.152 7.336-3.152l28.904 70.708c2.56-1.87 5.318-4.038 7.928-6.106M306.581 101.73l39.737-85.38s-4.087-6.156-2.906-7.387c1.133-1.23 5.564 3.595 5.564 3.595s3.94-6.254 5.663-6.401c1.723-.148-2.167 8.025-2.167 8.025s5.319-5.71 7.238-4.086c1.872 1.575-5.12 6.302-5.12 6.302s6.647 1.429 6.499 3.3c-.147 1.82-6.992.59-6.992.59s3.989 1.576 4.038 4.137c.05 2.56-7.337-3.152-7.337-3.152L318.3 100.696z" fill="#ffeab9" fill-rule="evenodd"/><path d="M292.548 80.163c27.131 5.86 44.414 32.597 38.554 59.728-5.859 27.13-32.596 44.364-59.727 38.555-27.13-5.86-44.364-32.597-38.505-59.728 5.81-27.131 32.547-44.414 59.678-38.555M338.488 97.299s17.136-12.557 23.29-7.632c6.156 4.924 10.046 20.188 14.477 24.767 4.431 4.579 20.336 6.204 28.362 2.511l7.977-3.693-5.614-15.658s-15.56 9.257-23.29 7.633c-9.947-2.118-11.03-27.673-25.85-30.825-8.617-1.87-25.753 10.685-25.753 10.685z" fill="#21120d" fill-rule="evenodd"/><path d="M244.737 122.165c7.631 1.625 12.457 9.158 10.832 16.79-1.674 7.583-9.158 12.458-16.79 10.784-7.583-1.625-12.458-9.11-10.784-16.742 1.625-7.631 9.11-12.458 16.742-10.832m31.858 32.103c7.631 1.675 12.457 9.159 10.832 16.792-1.674 7.582-9.158 12.457-16.79 10.832-7.583-1.675-12.458-9.158-10.784-16.791 1.625-7.632 9.109-12.457 16.742-10.833m37.323-9.995c7.632 1.674 12.457 9.158 10.833 16.79-1.625 7.584-9.159 12.458-16.791 10.834-7.583-1.675-12.457-9.16-10.783-16.792 1.624-7.632 9.109-12.457 16.741-10.832M294.42 71.547c7.633 1.624 12.458 9.158 10.833 16.74-1.625 7.633-9.159 12.459-16.79 10.833-7.584-1.624-12.459-9.158-10.785-16.74 1.626-7.633 9.11-12.459 16.742-10.833m33.237 34.22c7.583 1.626 12.457 9.16 10.783 16.742-1.624 7.632-9.11 12.458-16.74 10.833-7.634-1.625-12.459-9.158-10.834-16.741 1.675-7.632 9.158-12.459 16.79-10.833m-70.953-22.503c7.631 1.626 12.507 9.159 10.832 16.742-1.624 7.632-9.158 12.507-16.741 10.833-7.632-1.626-12.457-9.159-10.833-16.742 1.625-7.632 9.159-12.457 16.742-10.833m40.327-23.782c38.554 8.32 63.075 46.285 54.754 84.84-8.272 38.553-46.285 63.075-84.84 54.803-38.553-8.322-63.075-46.334-54.753-84.89 8.272-38.554 46.284-63.074 84.839-54.753" fill="#f5f0e7" fill-rule="evenodd"/><path d="M271.227 113.45a4.625 4.625 0 0 1 3.545 5.514 4.624 4.624 0 0 1-5.514 3.545 4.626 4.626 0 0 1-3.546-5.515 4.625 4.625 0 0 1 5.515-3.545M298.801 119.407a4.625 4.625 0 0 1 3.545 5.515 4.624 4.624 0 0 1-5.514 3.545 4.625 4.625 0 0 1-3.545-5.515 4.624 4.624 0 0 1 5.514-3.545" fill="#21120d" fill-rule="evenodd"/><path d="M267.88 126.448c3.544.739 6.007 3.398 5.465 5.91-.542 2.51-3.89 3.938-7.435 3.15-3.546-.738-6.008-3.397-5.466-5.908.542-2.511 3.89-3.939 7.435-3.152M297.817 133.096c3.545.788 6.007 3.446 5.465 5.957-.542 2.511-3.89 3.94-7.435 3.152-3.546-.788-6.007-3.397-5.465-5.908.542-2.512 3.89-3.94 7.435-3.201" fill="#ff5b6c" fill-rule="evenodd"/><path d="M276.102 127.384c0-.394.247-.689.59-.739.346 0 .69.247.74.59.098 1.33.64 2.463 1.378 3.399.788.886 1.822 1.527 3.004 1.772 1.23.295 2.462.099 3.545-.443 1.133-.541 2.068-1.428 2.708-2.658.148-.296.542-.395.887-.247a.633.633 0 0 1 .245.887c-.738 1.427-1.92 2.56-3.25 3.2a6.551 6.551 0 0 1-4.43.542c-1.429-.296-2.709-1.084-3.693-2.216a7.321 7.321 0 0 1-1.724-4.087" fill="#ff0045"/><path d="M337.307 93.556c-9.11-14.132-23.685-24.816-41.46-28.657-17.775-3.791-35.403-.05-49.584 9.06-14.132 9.158-24.816 23.684-28.657 41.46-3.84 17.775-.099 35.453 9.06 49.584 9.109 14.18 23.684 24.817 41.459 28.657 17.776 3.841 35.403.098 49.584-9.01 14.132-9.16 24.817-23.685 28.658-41.46 3.84-17.825.098-35.453-9.06-49.634m-41.361-29.15c17.923 3.842 32.596 14.625 41.804 28.904 9.207 14.23 12.999 32.055 9.159 49.979-3.89 17.922-14.625 32.595-28.904 41.804-14.28 9.207-32.104 12.95-50.027 9.109-17.924-3.84-32.547-14.625-41.756-28.904-9.257-14.28-12.998-32.055-9.158-49.978 3.89-17.923 14.624-32.596 28.903-41.804 14.28-9.208 32.055-13 49.979-9.11" fill="#bdb8b2" fill-rule="evenodd"/><path d="M275.216 232.756c49.337 0 89.567-3.053 89.567-6.746 0-3.742-40.23-6.746-89.567-6.746-49.338 0-89.567 3.004-89.567 6.746 0 3.693 40.23 6.746 89.567 6.746" fill="#009e97" fill-rule="evenodd"/><path d="M20 134.378h141.243M417 134.378h141.243" fill="none" stroke="#fff" stroke-width="4.9999875"/></svg>