<svg xmlns="http://www.w3.org/2000/svg" width="518.243" height="241.134" viewBox="0 0 518.24292 241.13426"><path d="M259.497 241.134c33.179 0 60.248-3.383 60.248-7.519s-27.07-7.567-60.248-7.567c-33.179 0-60.202 3.431-60.202 7.567s27.023 7.52 60.202 7.52" fill="#009e97" fill-rule="evenodd"/><path d="M217.812 132.199s-11.843 4.559-25.801-5.875c-14.004-10.48-16.307-26.459-16.307-26.459s4.042 1.316 4.7-.657c.704-2.021-3.995-1.363-3.995-1.363s2.82-3.43 1.598-4.324c-1.222-.846-2.585 3.196-2.585 3.196s.188-5.029-1.222-4.559c-1.457.47.047 4.09.047 4.09s-2.256-3.01-3.43-1.928c-1.176 1.034 1.362 3.008 1.691 3.149.329.093.423.14.423.14s-3.524.612-3.007 2.116c.516 1.55 3.242-.142 3.242-.142s.94 15.885 13.488 29.42c12.5 13.535 32.239 10.715 32.239 10.715zM300.477 132.199s11.796 4.559 25.753-5.875c14.006-10.48 16.308-26.459 16.308-26.459s-4.042 1.316-4.7-.657c-.657-2.021 4.042-1.363 4.042-1.363s-2.866-3.43-1.644-4.324c1.268-.846 2.584 3.196 2.584 3.196s-.188-5.029 1.269-4.559c1.41.47-.047 4.09-.047 4.09s2.256-3.01 3.384-1.928c1.174 1.034-1.316 3.008-1.646 3.149-.328.093-.423.14-.423.14s3.479.612 2.962 2.116c-.518 1.55-3.243-.142-3.243-.142s-.94 15.885-13.441 29.42c-12.5 13.535-32.286 10.715-32.286 10.715zM254.703 192.306c.564 3.9 1.88 37.972 1.88 37.972l-2.82.94s-4.84-37.972-3.807-37.972c1.035 0 4.795-.564 4.747-.94M261.33 192.306c-.564 3.9-1.88 37.972-1.88 37.972l2.866.94s4.794-37.972 3.76-37.972c-.986 0-4.794-.564-4.746-.94" fill="#ffeab9" fill-rule="evenodd"/><path d="M256.96 228.445l-3.808.518s-4.23 3.054-3.947 3.477c.282.423 7.848-.423 7.848-.423s.47-2.679-.094-3.572M259.262 228.351l3.806.564s4.23 3.055 3.948 3.478c-.235.423-7.848-.423-7.848-.423s-.47-2.678.094-3.619M318.664 66.452l-118.335-.658 16.495 124.679s12.642 6.298 41.733 5.687c29.09-.659 43.048-5.687 43.048-5.687z" fill="#ff344e" fill-rule="evenodd"/><path d="M227.305 65.935l-14.85-.048 15.226 127.829c3.478.751 7.848 1.456 13.159 1.927zm37.033.188l-13.347-.047V196.16c2.396.048 4.887.048 7.566 0 2.162-.046 4.277-.14 6.298-.234zm40.98.235l-13.958-.047-15.133 128.815c6.11-.611 11.092-1.364 14.945-2.115z" fill="#dbecea" fill-rule="evenodd"/><path d="M207.943 48.734c.563 0 1.08.048 1.598.188-.236-.657-.33-1.362-.33-2.115a6.94 6.94 0 0 1 6.956-6.954 6.94 6.94 0 0 1 6.956 6.954c0 1.316-.33 2.491-.94 3.525a6.963 6.963 0 0 1 4.746 6.627 6.94 6.94 0 0 1-6.955 6.955c-2.867 0-5.31-1.739-6.392-4.183-1.27 1.787-3.29 2.914-5.64 2.914a6.94 6.94 0 0 1-6.955-6.955 6.94 6.94 0 0 1 6.956-6.956M231.252 41.121c2.35 0 4.324 1.457 5.17 3.478.987-.987 2.397-1.55 3.901-1.55 3.102 0 5.592 2.49 5.592 5.544a5.576 5.576 0 0 1-5.592 5.593c-.235 0-.517 0-.752-.047v.188c0 3.055-2.491 5.545-5.593 5.545-3.055 0-5.592-2.49-5.592-5.545 0-.893.234-1.739.611-2.491-1.974-.893-3.337-2.82-3.337-5.123a5.576 5.576 0 0 1 5.592-5.592" fill="#fff68d" fill-rule="evenodd"/><path d="M252.542 37.972a5.997 5.997 0 0 1 6.015 6.016c0 .657-.094 1.362-.33 1.973.33-.046.66-.094.987-.094 3.29 0 6.016 2.68 6.016 6.016 0 3.337-2.725 6.015-6.016 6.015a5.983 5.983 0 0 1-4.04-1.55c-.987 2.02-3.056 3.43-5.452 3.43a5.997 5.997 0 0 1-6.016-6.015c0-2.726 1.833-5.076 4.371-5.78a5.95 5.95 0 0 1-1.55-3.995c0-3.337 2.725-6.016 6.015-6.016" fill="#fff68d" fill-rule="evenodd"/><path d="M267.298 41.31c2.914-1.646 6.58-.658 8.224 2.208.33.61.564 1.268.705 1.88.236-.188.517-.376.8-.518 2.866-1.644 6.532-.657 8.176 2.21 1.645 2.913.658 6.58-2.209 8.223a6.382 6.382 0 0 1-4.323.659c.188 2.209-.893 4.511-3.007 5.686a5.967 5.967 0 0 1-8.178-2.255c-1.363-2.397-.94-5.31.94-7.191a5.757 5.757 0 0 1-3.337-2.725 5.993 5.993 0 0 1 2.21-8.178" fill="#fff68d" fill-rule="evenodd"/><path d="M287.694 44.317c2.679-.47 5.217 1.316 5.686 4.042.094.517.094 1.08 0 1.598.236-.048.517-.142.753-.188 2.678-.47 5.263 1.362 5.686 4.04a4.907 4.907 0 0 1-3.995 5.688 4.684 4.684 0 0 1-3.477-.705c-.517 1.785-1.974 3.242-3.948 3.571-2.678.47-5.216-1.362-5.686-4.042-.377-2.209.799-4.37 2.726-5.263a5.187 5.187 0 0 1-1.787-3.055c-.47-2.678 1.316-5.216 4.042-5.686" fill="#fff68d" fill-rule="evenodd"/><path d="M306.022 38.912a5.997 5.997 0 0 1 6.016 6.016c0 .705-.141 1.362-.33 1.973.282-.046.612-.094.94-.094 3.338 0 6.016 2.726 6.016 6.016a5.997 5.997 0 0 1-6.015 6.015c-1.551 0-2.961-.61-4.042-1.55-.94 2.02-3.008 3.43-5.45 3.43-3.291 0-6.016-2.679-6.016-5.968a6.061 6.061 0 0 1 4.417-5.828c-.987-1.033-1.551-2.443-1.551-3.994a5.997 5.997 0 0 1 6.015-6.016" fill="#fff68d" fill-rule="evenodd"/><path d="M299.913 24.344c3.15 1.08 4.793 4.511 3.713 7.66-.236.658-.564 1.269-.987 1.739.33.094.657.141.94.281a5.952 5.952 0 0 1 3.665 7.661c-1.08 3.102-4.511 4.747-7.66 3.666-1.457-.517-2.585-1.551-3.29-2.82-1.598 1.598-3.994 2.256-6.297 1.457-3.102-1.08-4.747-4.512-3.666-7.66.94-2.585 3.43-4.183 6.063-3.995-.564-1.316-.611-2.867-.142-4.324 1.129-3.102 4.56-4.746 7.661-3.665" fill="#fff68d" fill-rule="evenodd"/><path d="M279.188 21.853c3.196 0 5.78 2.397 5.78 5.358 0 .61-.14 1.221-.328 1.738.282-.046.61-.046.94-.046 3.195 0 5.78 2.396 5.78 5.31 0 2.96-2.585 5.357-5.78 5.357-1.505 0-2.867-.516-3.901-1.41-.94 1.833-2.914 3.102-5.217 3.102-3.195 0-5.78-2.397-5.78-5.357 0-2.444 1.786-4.512 4.23-5.123-.94-.94-1.504-2.209-1.504-3.571 0-2.961 2.584-5.358 5.78-5.358M266.123 26.036c-2.35-1.175-5.216-.282-6.438 2.067-.282.47-.424.988-.517 1.504-.188-.14-.423-.282-.612-.422-2.349-1.176-5.263-.283-6.437 2.067a4.755 4.755 0 0 0 2.02 6.439 4.878 4.878 0 0 0 3.43.375 4.84 4.84 0 0 0 2.586 4.418c2.35 1.222 5.217.282 6.438-2.02.987-1.974.517-4.277-.987-5.687a5.026 5.026 0 0 0 2.538-2.303c1.222-2.35.282-5.216-2.02-6.438M237.033 23.169c2.678.846 4.182 3.665 3.383 6.344a5.1 5.1 0 0 1-.798 1.504c.281.047.564.094.798.188 2.68.846 4.184 3.665 3.385 6.345-.847 2.678-3.666 4.182-6.345 3.336a4.969 4.969 0 0 1-2.867-2.255 5.199 5.199 0 0 1-5.263 1.456c-2.679-.845-4.183-3.665-3.337-6.344.658-2.209 2.726-3.619 4.981-3.572-.516-1.128-.657-2.397-.282-3.619.847-2.678 3.666-4.182 6.345-3.383M242.672 7.848c3.15-1.739 7.144-.61 8.93 2.538a6.84 6.84 0 0 1 .751 2.068c.283-.236.565-.423.846-.611 3.196-1.786 7.19-.658 8.977 2.49 1.738 3.196.61 7.191-2.538 8.93-1.457.846-3.15 1.034-4.7.704.188 2.445-1.034 4.889-3.289 6.204a6.573 6.573 0 0 1-8.977-2.537c-1.456-2.585-.94-5.828 1.129-7.849a6.155 6.155 0 0 1-3.62-3.008c-1.785-3.149-.658-7.143 2.491-8.929" fill="#fff68d" fill-rule="evenodd"/><path d="M273.126 0c3.29 0 6.015 2.866 6.015 6.345 0 .751-.141 1.456-.33 2.115.283-.048.612-.094.941-.094 3.337 0 6.015 2.866 6.015 6.343 0 3.525-2.678 6.392-6.015 6.392-1.551 0-2.961-.658-4.042-1.692-.94 2.162-3.008 3.666-5.45 3.666-3.291 0-6.016-2.82-6.016-6.345 0-2.914 1.88-5.357 4.417-6.11-.987-1.127-1.55-2.631-1.55-4.275 0-3.479 2.678-6.345 6.015-6.345" fill="#fff68d" fill-rule="evenodd"/><path d="M199.718 58.838h119.604c2.444 0 4.417 2.021 4.417 4.418 0 2.444-1.973 4.464-4.417 4.464H199.718c-2.444 0-4.417-2.02-4.417-4.464 0-2.397 1.973-4.418 4.417-4.418" fill="#dbecea" fill-rule="evenodd"/><path d="M234.73 128.627c3.15 0 5.734-2.538 5.734-5.686 0-3.15-2.585-5.687-5.734-5.687-3.101 0-5.686 2.538-5.686 5.687 0 3.148 2.585 5.686 5.686 5.686M281.397 128.627c3.149 0 5.733-2.538 5.733-5.686 0-3.15-2.584-5.687-5.733-5.687-3.102 0-5.686 2.538-5.686 5.687 0 3.148 2.584 5.686 5.686 5.686" fill="#21120d" fill-rule="evenodd"/><path d="M232.38 146.673c4.465 0 8.083-2.538 8.083-5.686 0-3.15-3.618-5.687-8.083-5.687-4.464 0-8.082 2.538-8.082 5.687 0 3.148 3.618 5.686 8.082 5.686" fill="#db7499" fill-rule="evenodd"/><path d="M232.38 135.3c.752 0 1.504.094 2.21.236l1.08 10.667c-.987.33-2.115.47-3.29.47-4.464 0-8.082-2.537-8.082-5.687 0-3.148 3.618-5.686 8.082-5.686" fill="#e38fac" fill-rule="evenodd"/><path d="M286.52 146.673c4.417 0 8.082-2.538 8.082-5.686 0-3.15-3.665-5.687-8.083-5.687-4.464 0-8.083 2.538-8.083 5.687 0 3.148 3.62 5.686 8.083 5.686" fill="#db7499" fill-rule="evenodd"/><path d="M283.23 135.817l-1.175 9.916c1.269.611 2.82.94 4.464.94 4.465 0 8.084-2.538 8.084-5.686 0-3.149-3.619-5.687-8.084-5.687-1.174 0-2.303.188-3.29.517" fill="#e38fac" fill-rule="evenodd"/><path d="M249.534 132.95c-.142-.423.094-.846.517-.986a.825.825 0 0 1 1.034.517 7.75 7.75 0 0 0 2.537 3.712c1.176.846 2.585 1.363 4.042 1.363 1.55 0 3.008-.517 4.182-1.456 1.176-.94 2.069-2.257 2.538-3.855.094-.423.564-.704.987-.563.423.094.659.563.564.987a9.635 9.635 0 0 1-3.102 4.7 8.4 8.4 0 0 1-5.169 1.785 8.174 8.174 0 0 1-4.981-1.692c-1.41-1.08-2.538-2.632-3.15-4.512" fill="#ff0045"/><path d="M0 120.567h141.243M377 120.567h141.243" fill="none" stroke="#2c3e50" stroke-width="4.9999875"/></svg>