<?xml version="1.0" encoding="UTF-8" standalone="no"?>
<svg
   xmlns:dc="http://purl.org/dc/elements/1.1/"
   xmlns:cc="http://creativecommons.org/ns#"
   xmlns:rdf="http://www.w3.org/1999/02/22-rdf-syntax-ns#"
   xmlns:svg="http://www.w3.org/2000/svg"
   xmlns="http://www.w3.org/2000/svg"
   xmlns:sodipodi="http://sodipodi.sourceforge.net/DTD/sodipodi-0.dtd"
   xmlns:inkscape="http://www.inkscape.org/namespaces/inkscape"
   viewBox="0 0 668.24292 264.0155"
   height="264.0155"
   width="668.24292"
   xml:space="preserve"
   id="svg2"
   version="1.1"
   sodipodi:docname="ninth.svg"
   inkscape:version="0.92.1 r"><sodipodi:namedview
     pagecolor="#ffffff"
     bordercolor="#666666"
     borderopacity="1"
     objecttolerance="10"
     gridtolerance="10"
     guidetolerance="10"
     inkscape:pageopacity="0"
     inkscape:pageshadow="2"
     inkscape:window-width="1920"
     inkscape:window-height="1051"
     id="namedview5857"
     showgrid="false"
     fit-margin-top="0"
     fit-margin-left="0"
     fit-margin-right="0"
     fit-margin-bottom="0"
     inkscape:zoom="0.52485039"
     inkscape:cx="674.27062"
     inkscape:cy="146.42731"
     inkscape:window-x="0"
     inkscape:window-y="0"
     inkscape:window-maximized="1"
     inkscape:current-layer="g10" /><metadata
     id="metadata8"><rdf:RDF><cc:Work
         rdf:about=""><dc:format>image/svg+xml</dc:format><dc:type
           rdf:resource="http://purl.org/dc/dcmitype/StillImage" /><dc:title></dc:title></cc:Work></rdf:RDF></metadata><defs
     id="defs6"><clipPath
       id="clipPath20"
       clipPathUnits="userSpaceOnUse"><path
         id="path18"
         d="M 0,800 H 800 V 0 H 0 Z"
         inkscape:connector-curvature="0" /></clipPath><clipPath
       id="clipPath172"
       clipPathUnits="userSpaceOnUse"><path
         id="path170"
         d="M 0,800 H 800 V 0 H 0 Z"
         inkscape:connector-curvature="0" /></clipPath></defs><g
     transform="matrix(1.3333333,0,0,-1.3333333,234.51941,1325.8091)"
     id="g10"><path
       id="path12"
       style="fill:#00ac96;fill-opacity:1;fill-rule:nonzero;stroke:none"
       d="m 975,0 h 799.999 V 800 H 975 Z"
       inkscape:connector-curvature="0" /><g
       id="g14"><g
         clip-path="url(#clipPath20)"
         id="g16"><g
           transform="translate(283.2223,18.0195)"
           id="g22"><path
             id="path24"
             style="fill:#4b4b4b;fill-opacity:1;fill-rule:nonzero;stroke:none"
             d="m 0,0 c 0,-0.703 0.109,-1.301 0.328,-1.795 0.218,-0.494 0.517,-0.866 0.897,-1.115 0.38,-0.251 0.795,-0.377 1.244,-0.377 0.456,0 0.872,0.119 1.25,0.357 0.376,0.237 0.677,0.602 0.902,1.091 C 4.846,-1.348 4.958,-0.733 4.958,0 4.958,0.691 4.846,1.284 4.621,1.782 4.396,2.278 4.092,2.658 3.709,2.922 3.326,3.184 2.906,3.314 2.451,3.314 1.976,3.314 1.552,3.18 1.178,2.911 0.804,2.643 0.515,2.257 0.309,1.753 0.103,1.249 0,0.665 0,0 m 5.101,-3.809 v 0.257 C 4.752,-3.95 4.409,-4.275 4.07,-4.524 3.731,-4.775 3.364,-4.966 2.968,-5.095 2.572,-5.227 2.141,-5.29 1.672,-5.29 c -0.621,0 -1.196,0.131 -1.725,0.394 -0.528,0.262 -0.986,0.638 -1.371,1.125 -0.388,0.488 -0.68,1.06 -0.879,1.719 -0.2,0.659 -0.3,1.371 -0.3,2.137 0,1.621 0.396,2.886 1.188,3.791 C -0.624,4.78 0.418,5.233 1.71,5.233 2.457,5.233 3.087,5.105 3.6,4.85 4.113,4.593 4.613,4.197 5.101,3.667 V 7.494 C 5.101,8.026 5.206,8.428 5.419,8.7 5.63,8.973 5.933,9.108 6.326,9.108 6.718,9.108 7.02,8.983 7.232,8.733 7.445,8.482 7.551,8.115 7.551,7.627 V -3.809 c 0,-0.494 -0.114,-0.864 -0.342,-1.111 -0.228,-0.246 -0.522,-0.37 -0.883,-0.37 -0.355,0 -0.648,0.128 -0.879,0.384 -0.231,0.258 -0.346,0.623 -0.346,1.097"
             inkscape:connector-curvature="0" /></g><g
           transform="translate(294.6852,18.8359)"
           id="g26"><path
             id="path28"
             style="fill:#4b4b4b;fill-opacity:1;fill-rule:nonzero;stroke:none"
             d="M 0,0 H 4.702 C 4.639,0.887 4.398,1.551 3.984,1.99 3.569,2.431 3.024,2.65 2.346,2.65 1.7,2.65 1.169,2.428 0.755,1.981 0.34,1.535 0.089,0.874 0,0 M 5.071,-1.473 H 0 c 0.006,-0.588 0.124,-1.107 0.356,-1.556 0.231,-0.451 0.539,-0.789 0.921,-1.017 0.384,-0.228 0.806,-0.341 1.268,-0.341 0.31,0 0.594,0.035 0.85,0.108 0.257,0.074 0.505,0.186 0.747,0.342 0.24,0.155 0.461,0.322 0.664,0.499 0.202,0.178 0.464,0.419 0.788,0.723 0.133,0.113 0.323,0.171 0.571,0.171 0.266,0 0.48,-0.074 0.644,-0.22 0.165,-0.146 0.249,-0.35 0.249,-0.617 0,-0.234 -0.093,-0.507 -0.276,-0.821 C 6.597,-4.516 6.32,-4.816 5.951,-5.105 5.579,-5.393 5.115,-5.631 4.554,-5.821 3.994,-6.012 3.35,-6.106 2.621,-6.106 c -1.665,0 -2.96,0.475 -3.884,1.424 -0.925,0.95 -1.387,2.239 -1.387,3.866 0,0.766 0.114,1.477 0.342,2.131 0.228,0.657 0.561,1.218 0.997,1.687 0.437,0.469 0.975,0.827 1.615,1.078 0.639,0.25 1.349,0.374 2.128,0.374 1.012,0 1.881,-0.212 2.606,-0.641 0.726,-0.426 1.269,-0.979 1.629,-1.656 0.36,-0.678 0.542,-1.369 0.542,-2.07 0,-0.653 -0.187,-1.075 -0.56,-1.27 -0.373,-0.192 -0.9,-0.29 -1.578,-0.29"
             inkscape:connector-curvature="0" /></g><g
           transform="translate(311.5714,16.1211)"
           id="g30"><path
             id="path32"
             style="fill:#4b4b4b;fill-opacity:1;fill-rule:nonzero;stroke:none"
             d="m 0,0 c 0,-0.716 -0.173,-1.329 -0.523,-1.839 -0.347,-0.51 -0.862,-0.896 -1.543,-1.159 -0.68,-0.263 -1.508,-0.394 -2.483,-0.394 -0.931,0 -1.729,0.143 -2.394,0.428 -0.664,0.284 -1.156,0.642 -1.472,1.068 -0.317,0.428 -0.475,0.856 -0.475,1.288 0,0.285 0.101,0.528 0.304,0.73 0.203,0.202 0.459,0.304 0.77,0.304 0.272,0 0.48,-0.067 0.626,-0.199 0.146,-0.133 0.286,-0.321 0.417,-0.56 0.267,-0.464 0.586,-0.807 0.956,-1.036 0.37,-0.228 0.875,-0.342 1.515,-0.342 0.519,0 0.945,0.116 1.278,0.347 0.332,0.232 0.498,0.496 0.498,0.794 0,0.456 -0.172,0.787 -0.518,0.996 -0.345,0.209 -0.914,0.409 -1.705,0.599 -0.893,0.221 -1.619,0.455 -2.18,0.699 -0.56,0.242 -1.008,0.564 -1.344,0.963 -0.335,0.399 -0.503,0.89 -0.503,1.472 0,0.519 0.155,1.01 0.465,1.473 0.311,0.461 0.768,0.83 1.374,1.105 0.604,0.277 1.333,0.414 2.188,0.414 0.671,0 1.275,-0.069 1.809,-0.21 0.536,-0.137 0.983,-0.326 1.34,-0.56 0.358,-0.233 0.63,-0.493 0.816,-0.777 0.187,-0.286 0.28,-0.564 0.28,-0.837 0,-0.297 -0.1,-0.541 -0.298,-0.732 -0.2,-0.188 -0.483,-0.285 -0.851,-0.285 -0.266,0 -0.492,0.076 -0.679,0.23 -0.186,0.151 -0.4,0.378 -0.641,0.682 -0.196,0.253 -0.426,0.456 -0.692,0.609 -0.267,0.152 -0.628,0.227 -1.084,0.227 -0.469,0 -0.858,-0.099 -1.168,-0.3 C -6.227,5 -6.382,4.752 -6.382,4.454 c 0,-0.273 0.113,-0.496 0.341,-0.67 C -5.812,3.609 -5.506,3.465 -5.119,3.352 -4.732,3.238 -4.202,3.1 -3.523,2.935 -2.72,2.737 -2.063,2.503 -1.553,2.231 -1.044,1.96 -0.657,1.638 -0.393,1.267 -0.131,0.896 0,0.475 0,0"
             inkscape:connector-curvature="0" /></g><g
           transform="translate(315.503,21.7998)"
           id="g34"><path
             id="path36"
             style="fill:#4b4b4b;fill-opacity:1;fill-rule:nonzero;stroke:none"
             d="m 0,0 v -7.493 c 0,-0.52 -0.124,-0.913 -0.371,-1.179 -0.247,-0.266 -0.56,-0.398 -0.94,-0.398 -0.38,0 -0.689,0.135 -0.926,0.408 -0.238,0.272 -0.356,0.662 -0.356,1.169 v 7.418 c 0,0.511 0.118,0.898 0.356,1.158 0.237,0.26 0.546,0.39 0.926,0.39 0.38,0 0.693,-0.13 0.94,-0.39 C -0.124,0.823 0,0.462 0,0 m -1.283,2.678 c -0.36,0 -0.669,0.111 -0.925,0.333 -0.257,0.22 -0.385,0.534 -0.385,0.94 0,0.368 0.131,0.669 0.394,0.907 0.263,0.239 0.569,0.357 0.916,0.357 0.336,0 0.634,-0.108 0.893,-0.323 C -0.13,4.676 0,4.363 0,3.951 0,3.552 -0.127,3.24 -0.381,3.016 -0.634,2.791 -0.934,2.678 -1.283,2.678"
             inkscape:connector-curvature="0" /></g><g
           transform="translate(319.3487,18.0859)"
           id="g38"><path
             id="path40"
             style="fill:#4b4b4b;fill-opacity:1;fill-rule:nonzero;stroke:none"
             d="m 0,0 c 0,-1.051 0.229,-1.846 0.688,-2.384 0.459,-0.539 1.053,-0.807 1.781,-0.807 0.43,0 0.837,0.116 1.22,0.346 0.384,0.232 0.695,0.58 0.937,1.045 0.239,0.466 0.36,1.03 0.36,1.695 0,1.057 -0.232,1.881 -0.698,2.469 C 3.822,2.953 3.21,3.248 2.45,3.248 1.708,3.248 1.115,2.966 0.669,2.402 0.223,1.84 0,1.038 0,0 M 7.513,3.286 V -4.245 C 7.513,-5.106 7.42,-5.848 7.236,-6.469 7.054,-7.088 6.759,-7.602 6.354,-8.007 5.948,-8.411 5.418,-8.713 4.763,-8.908 4.108,-9.105 3.293,-9.203 2.317,-9.203 c -0.893,0 -1.691,0.125 -2.394,0.375 -0.702,0.251 -1.243,0.573 -1.624,0.969 -0.379,0.395 -0.57,0.802 -0.57,1.22 0,0.317 0.108,0.576 0.324,0.774 0.215,0.2 0.475,0.3 0.778,0.3 0.38,0 0.713,-0.168 0.998,-0.503 0.138,-0.171 0.282,-0.345 0.431,-0.519 0.149,-0.175 0.315,-0.323 0.494,-0.447 0.181,-0.122 0.398,-0.214 0.651,-0.275 0.253,-0.058 0.545,-0.089 0.874,-0.089 0.671,0 1.192,0.092 1.563,0.28 0.37,0.186 0.63,0.448 0.779,0.784 0.149,0.334 0.236,0.693 0.261,1.077 0.025,0.384 0.044,0.999 0.057,1.849 C 4.539,-3.967 4.08,-4.392 3.556,-4.683 3.034,-4.974 2.412,-5.119 1.691,-5.119 c -0.868,0 -1.626,0.222 -2.276,0.665 -0.648,0.443 -1.147,1.063 -1.495,1.861 -0.349,0.799 -0.522,1.719 -0.522,2.764 0,0.778 0.105,1.482 0.317,2.108 0.213,0.628 0.515,1.157 0.908,1.587 0.392,0.431 0.845,0.755 1.357,0.974 0.513,0.218 1.077,0.327 1.691,0.327 0.734,0 1.371,-0.142 1.91,-0.422 0.537,-0.283 1.038,-0.725 1.5,-1.326 v 0.352 c 0,0.45 0.11,0.797 0.332,1.045 0.222,0.246 0.507,0.371 0.856,0.371 0.5,0 0.832,-0.165 0.996,-0.49 C 7.43,4.371 7.513,3.9 7.513,3.286"
             inkscape:connector-curvature="0" /></g><g
           transform="translate(330.9825,21.8379)"
           id="g42"><path
             id="path44"
             style="fill:#4b4b4b;fill-opacity:1;fill-rule:nonzero;stroke:none"
             d="m 0,0 v -0.314 c 0.455,0.602 0.954,1.043 1.496,1.326 0.541,0.281 1.163,0.423 1.866,0.423 0.684,0 1.295,-0.15 1.833,-0.448 0.538,-0.298 0.941,-0.719 1.206,-1.261 0.172,-0.318 0.282,-0.661 0.332,-1.027 0.051,-0.368 0.078,-0.836 0.078,-1.406 v -4.824 c 0,-0.52 -0.12,-0.913 -0.357,-1.179 -0.238,-0.266 -0.546,-0.398 -0.926,-0.398 -0.387,0 -0.7,0.135 -0.941,0.408 -0.241,0.272 -0.36,0.662 -0.36,1.169 v 4.321 c 0,0.855 -0.12,1.509 -0.357,1.961 -0.238,0.452 -0.71,0.68 -1.42,0.68 -0.462,0 -0.883,-0.138 -1.263,-0.413 C 0.807,-1.259 0.528,-1.638 0.351,-2.118 0.225,-2.505 0.161,-3.226 0.161,-4.283 v -3.248 c 0,-0.526 -0.122,-0.921 -0.365,-1.184 -0.244,-0.263 -0.559,-0.393 -0.945,-0.393 -0.374,0 -0.681,0.135 -0.922,0.408 -0.24,0.272 -0.361,0.662 -0.361,1.169 v 7.493 c 0,0.494 0.108,0.863 0.323,1.107 0.215,0.243 0.51,0.366 0.883,0.366 0.228,0 0.434,-0.054 0.619,-0.163 0.182,-0.108 0.33,-0.269 0.441,-0.483 C -0.055,0.573 0,0.31 0,0"
             inkscape:connector-curvature="0" /></g><g
           transform="translate(341.6856,18.8359)"
           id="g46"><path
             id="path48"
             style="fill:#4b4b4b;fill-opacity:1;fill-rule:nonzero;stroke:none"
             d="M 0,0 H 4.701 C 4.638,0.887 4.399,1.551 3.984,1.99 3.569,2.431 3.023,2.65 2.346,2.65 1.7,2.65 1.169,2.428 0.754,1.981 0.339,1.535 0.089,0.874 0,0 M 5.071,-1.473 H 0 C 0.007,-2.061 0.125,-2.58 0.356,-3.029 0.587,-3.48 0.894,-3.818 1.278,-4.046 1.66,-4.274 2.083,-4.387 2.545,-4.387 c 0.31,0 0.594,0.035 0.851,0.108 0.255,0.074 0.504,0.186 0.746,0.342 0.239,0.155 0.461,0.322 0.665,0.499 0.201,0.178 0.464,0.419 0.787,0.723 0.133,0.113 0.323,0.171 0.57,0.171 0.266,0 0.482,-0.074 0.646,-0.22 0.165,-0.146 0.247,-0.35 0.247,-0.617 0,-0.234 -0.092,-0.507 -0.276,-0.821 C 6.597,-4.516 6.32,-4.816 5.95,-5.105 5.579,-5.393 5.115,-5.631 4.554,-5.821 3.994,-6.012 3.349,-6.106 2.621,-6.106 c -1.665,0 -2.96,0.475 -3.885,1.424 -0.924,0.95 -1.386,2.239 -1.386,3.866 0,0.766 0.114,1.477 0.341,2.131 0.228,0.657 0.562,1.218 0.998,1.687 0.437,0.469 0.976,0.827 1.615,1.078 0.639,0.25 1.349,0.374 2.128,0.374 1.012,0 1.88,-0.212 2.606,-0.641 C 5.763,3.387 6.306,2.834 6.667,2.157 7.028,1.479 7.209,0.788 7.209,0.087 7.209,-0.566 7.022,-0.988 6.648,-1.183 6.275,-1.375 5.75,-1.473 5.071,-1.473"
             inkscape:connector-curvature="0" /></g><g
           transform="translate(352.2271,18.0195)"
           id="g50"><path
             id="path52"
             style="fill:#4b4b4b;fill-opacity:1;fill-rule:nonzero;stroke:none"
             d="m 0,0 c 0,-0.703 0.108,-1.301 0.327,-1.795 0.219,-0.494 0.518,-0.866 0.899,-1.115 0.379,-0.251 0.794,-0.377 1.243,-0.377 0.456,0 0.873,0.119 1.249,0.357 0.377,0.237 0.678,0.602 0.902,1.091 C 4.845,-1.348 4.958,-0.733 4.958,0 4.958,0.691 4.845,1.284 4.62,1.782 4.396,2.278 4.092,2.658 3.708,2.922 3.325,3.184 2.906,3.314 2.45,3.314 1.976,3.314 1.551,3.18 1.177,2.911 0.804,2.643 0.514,2.257 0.308,1.753 0.102,1.249 0,0.665 0,0 m 5.1,-3.809 v 0.257 C 4.751,-3.95 4.408,-4.275 4.069,-4.524 3.73,-4.775 3.364,-4.966 2.968,-5.095 2.573,-5.227 2.14,-5.29 1.672,-5.29 c -0.622,0 -1.196,0.131 -1.724,0.394 -0.529,0.262 -0.987,0.638 -1.373,1.125 -0.387,0.488 -0.679,1.06 -0.878,1.719 -0.2,0.659 -0.3,1.371 -0.3,2.137 0,1.621 0.396,2.886 1.188,3.791 C -0.624,4.78 0.418,5.233 1.71,5.233 2.457,5.233 3.087,5.105 3.6,4.85 4.112,4.593 4.613,4.197 5.1,3.667 V 7.494 C 5.1,8.026 5.206,8.428 5.418,8.7 5.63,8.973 5.933,9.108 6.326,9.108 6.718,9.108 7.02,8.983 7.232,8.733 7.444,8.482 7.551,8.115 7.551,7.627 V -3.809 C 7.551,-4.303 7.437,-4.673 7.209,-4.92 6.981,-5.166 6.687,-5.29 6.326,-5.29 5.971,-5.29 5.678,-5.162 5.447,-4.906 5.215,-4.648 5.1,-4.283 5.1,-3.809"
             inkscape:connector-curvature="0" /></g><g
           transform="translate(368.0484,17.9434)"
           id="g54"><path
             id="path56"
             style="fill:#4b4b4b;fill-opacity:1;fill-rule:nonzero;stroke:none"
             d="m 0,0 c 0,-1.032 0.236,-1.824 0.708,-2.378 0.471,-0.555 1.09,-0.833 1.856,-0.833 0.652,0 1.215,0.283 1.686,0.851 0.472,0.567 0.708,1.378 0.708,2.436 C 4.958,0.76 4.86,1.35 4.664,1.843 4.467,2.337 4.189,2.719 3.828,2.987 3.467,3.256 3.045,3.391 2.564,3.391 2.071,3.391 1.63,3.256 1.244,2.987 0.858,2.719 0.554,2.329 0.332,1.819 0.111,1.311 0,0.703 0,0 m -0.124,7.703 v -3.96 c 0.488,0.506 0.985,0.895 1.492,1.163 0.506,0.269 1.133,0.403 1.881,0.403 0.861,0 1.615,-0.204 2.265,-0.611 0.648,-0.41 1.152,-1.002 1.51,-1.777 0.357,-0.775 0.537,-1.696 0.537,-2.76 0,-0.785 -0.1,-1.504 -0.299,-2.16 C 7.062,-2.654 6.772,-3.223 6.393,-3.703 6.012,-4.185 5.552,-4.558 5.011,-4.82 4.469,-5.083 3.872,-5.214 3.22,-5.214 c -0.399,0 -0.775,0.047 -1.125,0.143 -0.352,0.094 -0.652,0.218 -0.898,0.375 -0.246,0.154 -0.457,0.314 -0.632,0.479 -0.174,0.164 -0.404,0.412 -0.689,0.741 v -0.256 c 0,-0.488 -0.117,-0.857 -0.351,-1.108 -0.233,-0.25 -0.531,-0.374 -0.893,-0.374 -0.367,0 -0.66,0.124 -0.878,0.374 -0.219,0.251 -0.328,0.62 -0.328,1.108 V 7.59 c 0,0.525 0.106,0.923 0.318,1.191 0.212,0.269 0.509,0.403 0.888,0.403 0.4,0 0.706,-0.127 0.922,-0.383 0.215,-0.258 0.322,-0.622 0.322,-1.098"
             inkscape:connector-curvature="0" /></g><g
           transform="translate(378.9708,12.4062)"
           id="g58"><path
             id="path60"
             style="fill:#4b4b4b;fill-opacity:1;fill-rule:nonzero;stroke:none"
             d="m 0,0 0.237,0.58 -3.191,8.035 c -0.196,0.461 -0.295,0.798 -0.295,1.007 0,0.222 0.058,0.427 0.171,0.616 0.115,0.191 0.271,0.343 0.47,0.456 0.2,0.116 0.407,0.172 0.623,0.172 0.373,0 0.654,-0.119 0.845,-0.356 0.191,-0.238 0.358,-0.577 0.503,-1.021 l 2.195,-6.383 2.08,5.937 c 0.164,0.479 0.313,0.857 0.446,1.13 0.133,0.272 0.273,0.456 0.422,0.55 0.149,0.095 0.36,0.143 0.632,0.143 0.197,0 0.385,-0.052 0.566,-0.157 0.18,-0.105 0.319,-0.245 0.417,-0.423 C 6.219,10.109 6.269,9.923 6.269,9.727 6.243,9.606 6.203,9.436 6.145,9.213 6.087,8.992 6.019,8.766 5.936,8.539 L 2.555,-0.313 C 2.263,-1.092 1.979,-1.702 1.7,-2.146 1.421,-2.589 1.053,-2.931 0.593,-3.167 0.134,-3.405 -0.485,-3.523 -1.264,-3.523 c -0.759,0 -1.329,0.082 -1.708,0.246 -0.381,0.166 -0.571,0.466 -0.571,0.903 0,0.297 0.09,0.527 0.272,0.688 0.179,0.162 0.447,0.244 0.801,0.244 0.139,0 0.276,-0.02 0.409,-0.059 0.165,-0.037 0.307,-0.057 0.427,-0.057 0.297,0 0.532,0.044 0.703,0.134 0.171,0.088 0.324,0.241 0.461,0.461 C -0.335,-0.746 -0.177,-0.424 0,0"
             inkscape:connector-curvature="0" /></g><g
           transform="translate(416.5336,23.0478)"
           id="g62"><path
             id="path64"
             style="fill:#4b4b4b;fill-opacity:1;fill-rule:nonzero;stroke:none"
             d="m 0,0 h 0.618 v 0.778 c 0,0.815 0.1,1.457 0.307,1.938 0.204,0.478 0.555,0.826 1.047,1.045 0.49,0.217 1.163,0.326 2.016,0.326 1.52,0 2.273,-0.367 2.273,-1.114 C 6.261,2.734 6.182,2.528 6.021,2.357 5.866,2.188 5.678,2.102 5.463,2.102 5.363,2.102 5.185,2.12 4.936,2.161 4.698,2.194 4.483,2.217 4.312,2.217 3.845,2.217 3.546,2.076 3.407,1.802 3.28,1.526 3.212,1.133 3.212,0.617 V 0 H 3.845 C 4.836,0 5.326,-0.297 5.326,-0.896 5.326,-1.314 5.199,-1.586 4.934,-1.7 4.672,-1.814 4.31,-1.871 3.845,-1.871 H 3.212 v -6.871 c 0,-0.511 -0.12,-0.901 -0.369,-1.168 -0.241,-0.273 -0.554,-0.406 -0.943,-0.406 -0.367,0 -0.671,0.133 -0.918,0.406 -0.244,0.267 -0.364,0.657 -0.364,1.168 v 6.871 h -0.714 c -0.388,0 -0.682,0.084 -0.893,0.262 -0.209,0.171 -0.315,0.399 -0.315,0.677 C -1.304,-0.308 -0.869,0 0,0"
             inkscape:connector-curvature="0" /></g><g
           transform="translate(425.0229,16.4736)"
           id="g66"><path
             id="path68"
             style="fill:#4b4b4b;fill-opacity:1;fill-rule:nonzero;stroke:none"
             d="m 0,0 v -2.168 c 0,-0.523 -0.133,-0.919 -0.374,-1.18 -0.247,-0.265 -0.559,-0.394 -0.937,-0.394 -0.382,0 -0.688,0.131 -0.927,0.4 -0.237,0.264 -0.361,0.656 -0.361,1.174 v 7.223 c 0,1.166 0.42,1.749 1.261,1.749 0.434,0 0.743,-0.135 0.934,-0.409 0.189,-0.273 0.295,-0.673 0.317,-1.208 0.308,0.535 0.624,0.935 0.948,1.208 0.332,0.274 0.763,0.409 1.31,0.409 0.549,0 1.072,-0.135 1.585,-0.409 C 4.272,6.122 4.527,5.759 4.527,5.311 4.527,4.996 4.417,4.73 4.201,4.529 3.981,4.32 3.747,4.218 3.495,4.218 3.396,4.218 3.164,4.28 2.803,4.397 2.438,4.511 2.114,4.57 1.84,4.57 1.46,4.57 1.148,4.468 0.908,4.272 0.666,4.067 0.478,3.775 0.344,3.386 0.215,2.991 0.125,2.52 0.071,1.981 0.023,1.439 0,0.778 0,0"
             inkscape:connector-curvature="0" /></g><g
           transform="translate(431.8696,18.8408)"
           id="g70"><path
             id="path72"
             style="fill:#4b4b4b;fill-opacity:1;fill-rule:nonzero;stroke:none"
             d="M 0,0 H 4.701 C 4.639,0.885 4.403,1.55 3.987,1.986 3.569,2.429 3.028,2.646 2.347,2.646 1.701,2.646 1.17,2.427 0.755,1.978 0.341,1.531 0.087,0.873 0,0 M 5.074,-1.475 H 0 c 0.009,-0.588 0.124,-1.11 0.354,-1.558 0.236,-0.447 0.541,-0.786 0.925,-1.017 0.385,-0.227 0.804,-0.34 1.269,-0.34 0.31,0 0.593,0.034 0.849,0.112 0.254,0.069 0.505,0.185 0.746,0.34 0.242,0.153 0.46,0.319 0.664,0.5 0.202,0.175 0.466,0.417 0.79,0.719 0.134,0.114 0.324,0.174 0.568,0.174 0.269,0 0.481,-0.074 0.649,-0.222 0.166,-0.147 0.244,-0.35 0.244,-0.617 0,-0.235 -0.089,-0.508 -0.268,-0.819 C 6.603,-4.521 6.327,-4.819 5.954,-5.109 5.58,-5.395 5.115,-5.637 4.557,-5.823 3.997,-6.014 3.351,-6.109 2.625,-6.109 c -1.671,0 -2.964,0.472 -3.887,1.422 -0.924,0.952 -1.391,2.242 -1.391,3.868 0,0.766 0.117,1.478 0.347,2.134 0.225,0.659 0.558,1.216 0.999,1.688 0.436,0.471 0.97,0.828 1.613,1.078 0.637,0.249 1.346,0.374 2.128,0.374 1.01,0 1.88,-0.214 2.606,-0.645 C 5.764,3.387 6.314,2.833 6.669,2.155 7.03,1.475 7.211,0.787 7.211,0.081 c 0,-0.648 -0.189,-1.07 -0.562,-1.266 -0.373,-0.193 -0.897,-0.29 -1.575,-0.29"
             inkscape:connector-curvature="0" /></g><g
           transform="translate(442.6577,18.8408)"
           id="g74"><path
             id="path76"
             style="fill:#4b4b4b;fill-opacity:1;fill-rule:nonzero;stroke:none"
             d="M 0,0 H 4.701 C 4.638,0.885 4.397,1.55 3.986,1.986 3.565,2.429 3.024,2.646 2.344,2.646 1.698,2.646 1.168,2.427 0.751,1.978 0.338,1.531 0.084,0.873 0,0 M 5.073,-1.475 H 0 c 0.006,-0.588 0.125,-1.11 0.355,-1.558 0.231,-0.447 0.539,-0.786 0.92,-1.017 0.383,-0.227 0.806,-0.34 1.272,-0.34 0.308,0 0.593,0.034 0.845,0.112 0.258,0.069 0.505,0.185 0.75,0.34 0.242,0.153 0.46,0.319 0.664,0.5 0.199,0.175 0.464,0.417 0.788,0.719 0.135,0.114 0.326,0.174 0.568,0.174 0.269,0 0.484,-0.074 0.65,-0.222 0.166,-0.147 0.241,-0.35 0.241,-0.617 0,-0.235 -0.087,-0.508 -0.274,-0.819 C 6.603,-4.521 6.324,-4.819 5.949,-5.109 5.579,-5.395 5.109,-5.637 4.554,-5.823 3.996,-6.014 3.346,-6.109 2.619,-6.109 c -1.667,0 -2.959,0.472 -3.887,1.422 -0.923,0.952 -1.388,2.242 -1.388,3.868 0,0.766 0.116,1.478 0.347,2.134 0.227,0.659 0.559,1.216 0.997,1.688 0.435,0.471 0.972,0.828 1.614,1.078 0.637,0.249 1.35,0.374 2.129,0.374 1.008,0 1.878,-0.214 2.613,-0.645 C 5.764,3.387 6.31,2.833 6.665,2.155 7.024,1.475 7.21,0.787 7.21,0.081 7.21,-0.567 7.019,-0.989 6.648,-1.185 6.273,-1.378 5.749,-1.475 5.073,-1.475"
             inkscape:connector-curvature="0" /></g><g
           transform="translate(458.4946,18.0508)"
           id="g78"><path
             id="path80"
             style="fill:#4b4b4b;fill-opacity:1;fill-rule:nonzero;stroke:none"
             d="m 0,0 c 0,0.685 -0.107,1.273 -0.315,1.763 -0.208,0.492 -0.499,0.867 -0.866,1.128 -0.367,0.262 -0.782,0.396 -1.232,0.396 -0.714,0 -1.319,-0.284 -1.809,-0.844 -0.492,-0.566 -0.739,-1.395 -0.739,-2.493 0,-1.026 0.244,-1.833 0.735,-2.406 0.488,-0.573 1.086,-0.858 1.813,-0.858 0.429,0 0.83,0.126 1.197,0.372 0.371,0.253 0.665,0.627 0.884,1.127 C -0.111,-1.313 0,-0.708 0,0 M -5.084,3.768 V 3.457 c 0.486,0.601 0.994,1.042 1.524,1.324 0.519,0.284 1.119,0.427 1.783,0.427 C -0.982,5.208 -0.242,5 0.43,4.591 1.101,4.177 1.628,3.575 2.018,2.784 2.408,1.989 2.604,1.055 2.604,-0.029 2.604,-0.825 2.492,-1.561 2.268,-2.23 2.045,-2.898 1.731,-3.457 1.34,-3.91 0.946,-4.36 0.484,-4.712 -0.05,-4.956 c -0.542,-0.241 -1.111,-0.363 -1.727,-0.363 -0.739,0 -1.365,0.148 -1.866,0.447 -0.503,0.292 -0.982,0.733 -1.441,1.306 v -3.893 c 0,-1.136 -0.416,-1.71 -1.244,-1.71 -0.49,0 -0.809,0.147 -0.972,0.44 -0.151,0.298 -0.233,0.723 -0.233,1.291 V 3.755 c 0,0.495 0.106,0.859 0.32,1.107 0.215,0.24 0.512,0.365 0.885,0.365 0.369,0 0.666,-0.125 0.895,-0.374 0.236,-0.254 0.349,-0.611 0.349,-1.085"
             inkscape:connector-curvature="0" /></g><g
           transform="translate(464.9946,21.8057)"
           id="g82"><path
             id="path84"
             style="fill:#4b4b4b;fill-opacity:1;fill-rule:nonzero;stroke:none"
             d="m 0,0 v -7.502 c 0,-0.516 -0.124,-0.908 -0.37,-1.172 -0.25,-0.269 -0.561,-0.4 -0.941,-0.4 -0.381,0 -0.685,0.134 -0.928,0.406 -0.234,0.276 -0.356,0.665 -0.356,1.166 v 7.428 c 0,0.51 0.122,0.894 0.356,1.154 0.243,0.265 0.547,0.392 0.928,0.392 0.38,0 0.691,-0.127 0.941,-0.392 C -0.124,0.82 0,0.458 0,0 m -1.284,2.679 c -0.363,0 -0.669,0.114 -0.923,0.335 -0.26,0.222 -0.388,0.532 -0.388,0.936 0,0.368 0.131,0.67 0.397,0.91 0.262,0.235 0.566,0.356 0.914,0.356 0.34,0 0.636,-0.107 0.893,-0.32 C -0.131,4.678 0,4.362 0,3.95 0,3.551 -0.127,3.239 -0.378,3.015 -0.632,2.793 -0.933,2.679 -1.284,2.679"
             inkscape:connector-curvature="0" /></g><g
           transform="translate(473.354,13.915)"
           id="g86"><path
             id="path88"
             style="fill:#4b4b4b;fill-opacity:1;fill-rule:nonzero;stroke:none"
             d="M 0,0 -2.284,3.766 -3.692,2.438 V 0.372 c 0,-0.499 -0.133,-0.882 -0.397,-1.149 -0.257,-0.273 -0.566,-0.407 -0.906,-0.407 -0.399,0 -0.715,0.131 -0.941,0.401 -0.226,0.264 -0.343,0.656 -0.343,1.174 v 11.063 c 0,0.573 0.114,1.011 0.331,1.314 0.222,0.304 0.545,0.452 0.953,0.452 0.399,0 0.713,-0.137 0.949,-0.411 0.234,-0.271 0.354,-0.674 0.354,-1.202 V 5.314 l 2.916,3.062 C -0.414,8.752 -0.144,9.017 0.051,9.154 0.24,9.293 0.47,9.362 0.74,9.362 1.066,9.362 1.334,9.259 1.556,9.054 1.767,8.848 1.876,8.588 1.876,8.28 1.876,7.901 1.522,7.392 0.821,6.759 L -0.556,5.496 2.103,1.314 C 2.297,1 2.442,0.77 2.527,0.608 2.611,0.448 2.657,0.288 2.657,0.146 2.657,-0.267 2.543,-0.589 2.316,-0.83 2.092,-1.066 1.793,-1.184 1.431,-1.184 1.114,-1.184 0.867,-1.102 0.697,-0.928 0.527,-0.755 0.29,-0.444 0,0"
             inkscape:connector-curvature="0" /></g><g
           transform="translate(478.9897,12.7314)"
           id="g90"><path
             id="path92"
             style="fill:#4b4b4b;fill-opacity:1;fill-rule:nonzero;stroke:none"
             d="m 0,0 c -0.392,0 -0.727,0.126 -1.014,0.381 -0.284,0.249 -0.428,0.605 -0.428,1.064 0,0.386 0.137,0.719 0.41,0.996 0.274,0.279 0.607,0.418 1.008,0.418 0.397,0 0.735,-0.139 1.022,-0.412 C 1.277,2.172 1.42,1.835 1.42,1.445 1.42,0.993 1.277,0.638 0.998,0.386 0.711,0.126 0.379,0 0,0"
             inkscape:connector-curvature="0" /></g><g
           transform="translate(491.8881,15.9414)"
           id="g94"><path
             id="path96"
             style="fill:#4b4b4b;fill-opacity:1;fill-rule:nonzero;stroke:none"
             d="m 0,0 c 0,-0.32 -0.097,-0.668 -0.291,-1.034 -0.191,-0.37 -0.488,-0.718 -0.886,-1.05 -0.394,-0.332 -0.891,-0.603 -1.495,-0.804 -0.6,-0.202 -1.28,-0.306 -2.03,-0.306 -1.607,0 -2.858,0.469 -3.758,1.401 -0.895,0.936 -1.346,2.189 -1.346,3.76 0,1.067 0.204,2.006 0.62,2.824 0.407,0.814 1.003,1.447 1.781,1.894 0.779,0.448 1.716,0.669 2.794,0.669 0.673,0 1.288,-0.097 1.852,-0.294 0.561,-0.196 1.032,-0.452 1.425,-0.759 0.387,-0.315 0.686,-0.644 0.89,-0.992 C -0.237,4.957 -0.137,4.628 -0.137,4.321 -0.137,4.014 -0.25,3.75 -0.479,3.534 -0.715,3.319 -0.995,3.21 -1.318,3.21 c -0.219,0 -0.398,0.057 -0.541,0.166 -0.144,0.112 -0.305,0.29 -0.479,0.542 -0.317,0.478 -0.646,0.842 -0.996,1.079 -0.343,0.243 -0.78,0.362 -1.313,0.362 -0.762,0 -1.384,-0.298 -1.854,-0.897 -0.468,-0.596 -0.703,-1.42 -0.703,-2.454 0,-0.488 0.062,-0.94 0.183,-1.348 0.117,-0.407 0.291,-0.756 0.52,-1.044 0.231,-0.287 0.504,-0.505 0.826,-0.654 0.324,-0.153 0.681,-0.226 1.064,-0.226 0.521,0 0.966,0.12 1.337,0.361 0.376,0.241 0.702,0.607 0.986,1.102 0.158,0.291 0.327,0.518 0.509,0.684 0.182,0.163 0.409,0.249 0.676,0.249 0.316,0 0.58,-0.123 0.786,-0.362 C -0.106,0.529 0,0.27 0,0"
             inkscape:connector-curvature="0" /></g><g
           transform="translate(500.475,18.0019)"
           id="g98"><path
             id="path100"
             style="fill:#4b4b4b;fill-opacity:1;fill-rule:nonzero;stroke:none"
             d="M 0,0 C 0,1.059 -0.234,1.881 -0.698,2.469 -1.161,3.064 -1.788,3.356 -2.572,3.356 -3.08,3.356 -3.527,3.225 -3.915,2.963 -4.302,2.701 -4.596,2.313 -4.805,1.799 -5.014,1.285 -5.12,0.686 -5.12,0 c 0,-0.679 0.102,-1.268 0.309,-1.773 0.208,-0.511 0.502,-0.898 0.886,-1.166 0.386,-0.267 0.835,-0.405 1.353,-0.405 0.784,0 1.411,0.296 1.874,0.892 C -0.234,-1.861 0,-1.041 0,0 m 2.604,0 c 0,-0.77 -0.123,-1.484 -0.356,-2.139 -0.247,-0.652 -0.592,-1.213 -1.05,-1.678 -0.455,-0.469 -1.002,-0.829 -1.632,-1.08 -0.639,-0.248 -1.349,-0.375 -2.138,-0.375 -0.785,0 -1.493,0.127 -2.121,0.382 -0.623,0.249 -1.171,0.615 -1.626,1.082 -0.461,0.477 -0.809,1.035 -1.052,1.677 -0.23,0.644 -0.351,1.355 -0.351,2.131 0,0.786 0.124,1.506 0.359,2.158 0.242,0.655 0.589,1.212 1.039,1.673 0.451,0.462 0.993,0.817 1.631,1.07 0.643,0.249 1.349,0.374 2.121,0.374 0.784,0 1.498,-0.125 2.138,-0.381 C 0.204,4.643 0.749,4.279 1.21,3.814 1.668,3.34 2.013,2.785 2.25,2.143 2.483,1.491 2.604,0.782 2.604,0"
             inkscape:connector-curvature="0" /></g><g
           transform="translate(512.9702,17.8115)"
           id="g102"><path
             id="path104"
             style="fill:#4b4b4b;fill-opacity:1;fill-rule:nonzero;stroke:none"
             d="m 0,0 v -3.446 c 0,-0.547 -0.12,-0.951 -0.369,-1.228 -0.25,-0.272 -0.572,-0.408 -0.978,-0.408 -0.392,0 -0.714,0.136 -0.951,0.408 -0.247,0.277 -0.372,0.681 -0.372,1.228 v 4.131 c 0,0.653 -0.021,1.162 -0.063,1.524 -0.046,0.354 -0.168,0.655 -0.363,0.883 -0.196,0.235 -0.509,0.351 -0.93,0.351 -0.851,0 -1.408,-0.29 -1.677,-0.88 C -5.971,1.986 -6.109,1.149 -6.109,0.056 v -3.502 c 0,-0.538 -0.123,-0.947 -0.362,-1.224 -0.249,-0.273 -0.567,-0.412 -0.965,-0.412 -0.395,0 -0.716,0.139 -0.966,0.412 -0.252,0.277 -0.376,0.686 -0.376,1.224 v 7.419 c 0,0.489 0.111,0.86 0.335,1.111 0.229,0.257 0.526,0.382 0.889,0.382 0.357,0 0.652,-0.123 0.892,-0.356 0.236,-0.238 0.354,-0.566 0.354,-0.984 V 3.881 c 0.453,0.535 0.935,0.931 1.445,1.18 0.516,0.26 1.082,0.386 1.713,0.386 0.651,0 1.21,-0.131 1.677,-0.389 0.47,-0.261 0.854,-0.656 1.161,-1.177 0.439,0.528 0.909,0.923 1.41,1.18 0.5,0.257 1.052,0.386 1.662,0.386 0.706,0 1.321,-0.142 1.834,-0.419 C 5.103,4.75 5.486,4.349 5.741,3.833 5.962,3.36 6.071,2.623 6.071,1.616 V -3.446 C 6.071,-3.993 5.949,-4.397 5.704,-4.674 5.458,-4.946 5.129,-5.082 4.725,-5.082 4.33,-5.082 4.011,-4.943 3.76,-4.67 3.51,-4.393 3.384,-3.984 3.384,-3.446 V 0.915 C 3.384,1.474 3.36,1.918 3.314,2.253 3.267,2.59 3.138,2.873 2.932,3.1 2.72,3.327 2.401,3.443 1.978,3.443 1.637,3.443 1.312,3.337 1.005,3.136 0.698,2.938 0.458,2.659 0.284,2.323 0.099,1.885 0,1.11 0,0"
             inkscape:connector-curvature="0" /></g><g
           transform="translate(392.2656,18.6299)"
           id="g106"><path
             id="path108"
             style="fill:#4b4b4b;fill-opacity:1;fill-rule:nonzero;stroke:none"
             d="M 0,0 C -0.002,0.005 -0.002,0.01 -0.002,0.018 -0.002,0.01 -0.002,0.005 0,0"
             inkscape:connector-curvature="0" /></g><g
           transform="translate(392.3964,17.8008)"
           id="g110"><path
             id="path112"
             style="fill:#4b4b4b;fill-opacity:1;fill-rule:nonzero;stroke:none"
             d="M 0,0 H 0.003 C -0.047,0.236 -0.085,0.471 -0.116,0.702 -0.085,0.469 -0.047,0.233 0,0"
             inkscape:connector-curvature="0" /></g><g
           transform="translate(393.2548,15.3945)"
           id="g114"><path
             id="path116"
             style="fill:#4b4b4b;fill-opacity:1;fill-rule:nonzero;stroke:none"
             d="M 0,0 C -0.006,0.01 -0.011,0.021 -0.017,0.033 -0.011,0.021 -0.006,0.01 0,0"
             inkscape:connector-curvature="0" /></g><g
           transform="translate(393.1728,15.5547)"
           id="g118"><path
             id="path120"
             style="fill:#4b4b4b;fill-opacity:1;fill-rule:nonzero;stroke:none"
             d="M 0,0 C -0.022,0.044 -0.044,0.09 -0.065,0.134 -0.044,0.087 -0.022,0.044 0,0"
             inkscape:connector-curvature="0" /></g><g
           transform="translate(392.6376,16.874)"
           id="g122"><path
             id="path124"
             style="fill:#4b4b4b;fill-opacity:1;fill-rule:nonzero;stroke:none"
             d="M 0,0 C 0.127,-0.4 0.28,-0.788 0.457,-1.158 0.277,-0.78 0.127,-0.392 0.003,0 Z"
             inkscape:connector-curvature="0" /></g><g
           transform="translate(402.3032,28.5664)"
           id="g126"><path
             id="path128"
             style="fill:#4b4b4b;fill-opacity:1;fill-rule:nonzero;stroke:none"
             d="m 0,0 c 0.501,0 0.871,-0.04 1.295,-0.111 l 0.12,0.762 c 0,0 -1.171,0.361 -2.71,0.235 l -0.122,0.415 c 0.479,0.1 0.838,0.526 0.838,1.034 0,0.582 -0.474,1.054 -1.057,1.054 -0.583,0 -1.055,-0.472 -1.055,-1.054 0,-0.508 0.358,-0.934 0.836,-1.034 L -1.722,0.838 C -3.356,0.613 -4.657,-0.024 -4.657,-0.024 l 0.231,-0.706 c 0.988,0.33 1.846,0.53 2.624,0.614 C -1.041,-0.035 -0.467,0 0,0"
             inkscape:connector-curvature="0" /></g><g
           transform="translate(393.2353,24.708)"
           id="g130"><path
             id="path132"
             style="fill:#4b4b4b;fill-opacity:1;fill-rule:nonzero;stroke:none"
             d="m 0,0 0.006,0.008 c 0.038,0.05 0.076,0.096 0.113,0.142 l -0.313,0.226 -0.488,0.356 c -0.027,-0.038 -0.795,-0.744 -1.401,-2.047 -0.025,0.041 -0.056,0.081 -0.09,0.119 -0.181,0.198 -0.435,0.3 -0.758,0.294 h -0.015 c -0.2,0 -0.337,0.066 -0.427,0.147 0.09,0.113 0.144,0.256 0.144,0.413 0,0.368 -0.3,0.669 -0.67,0.669 -0.369,0 -0.668,-0.301 -0.668,-0.669 0,-0.37 0.299,-0.669 0.668,-0.669 0.058,0 0.113,0.01 0.167,0.021 0.165,-0.183 0.425,-0.342 0.808,-0.334 0.196,0.002 0.341,-0.049 0.437,-0.156 0.111,-0.121 0.149,-0.295 0.16,-0.427 -10e-4,-0.002 -10e-4,-0.005 -0.003,-0.005 -0.436,-1.19 -0.311,-2.67 -0.311,-2.67 l 1.057,-0.042 c 0.022,0.539 0.099,1.482 0.372,2.23 C -0.686,-0.944 -0.027,-0.038 0,0"
             inkscape:connector-curvature="0" /></g><g
           transform="translate(411.5024,27.6826)"
           id="g134"><path
             id="path136"
             style="fill:#4b4b4b;fill-opacity:1;fill-rule:nonzero;stroke:none"
             d="m 0,0 c -0.368,0 -0.669,-0.299 -0.669,-0.669 0,-0.058 0.009,-0.112 0.023,-0.165 C -0.829,-1 -0.988,-1.262 -0.982,-1.645 -0.98,-1.842 -1.03,-1.984 -1.137,-2.081 -1.222,-2.156 -1.328,-2.196 -1.433,-2.222 -2.22,-1.119 -3.189,-0.446 -3.189,-0.446 L -3.947,-1.26 c 0.573,-0.521 1.159,-1.175 1.728,-1.99 0.394,-0.564 0.799,-1.29 1.136,-2.015 l 1.024,0.487 c 0,0 -0.467,1.155 -1.126,2.191 0.115,0.04 0.23,0.103 0.331,0.192 0.201,0.181 0.299,0.437 0.293,0.758 -0.001,0.208 0.067,0.349 0.149,0.442 0.114,-0.087 0.257,-0.143 0.412,-0.143 0.371,0 0.67,0.3 0.67,0.669 C 0.67,-0.299 0.371,0 0,0"
             inkscape:connector-curvature="0" /></g><g
           transform="translate(408.8452,18.4805)"
           id="g138"><path
             id="path140"
             style="fill:#4b4b4b;fill-opacity:1;fill-rule:nonzero;stroke:none"
             d="m 0,0 c -1.409,-0.687 -3.728,-1.594 -6.781,-2.02 -1.198,-0.166 -2.36,-0.227 -3.429,-0.227 -1.39,0 -2.619,0.103 -3.562,0.223 -1.076,0.135 -1.917,0.301 -2.432,0.418 0.123,-0.392 0.273,-0.781 0.454,-1.159 0.003,-0.009 0.007,-0.02 0.012,-0.027 0.022,-0.044 0.043,-0.09 0.066,-0.134 0.021,-0.044 0.043,-0.087 0.065,-0.127 0.006,-0.011 0.011,-0.023 0.017,-0.033 0.302,-0.57 0.666,-1.095 1.08,-1.549 1.44,-1.575 2.907,-1.824 2.921,-1.826 l 0.023,-0.003 0.022,-0.008 c 0.013,-0.005 1.314,-0.424 3.291,-0.424 1.945,0 3.855,0.392 5.674,1.167 1.348,0.689 2.622,1.736 3.254,2.669 0.488,0.723 0.841,1.494 1.05,2.294 C 1.836,-0.34 1.924,0.342 1.872,1.06 1.476,0.793 0.849,0.413 0,0"
             inkscape:connector-curvature="0" /></g><g
           transform="translate(397.7158,25.1103)"
           id="g142"><path
             id="path144"
             style="fill:#4b4b4b;fill-opacity:1;fill-rule:nonzero;stroke:none"
             d="m 0,0 c 1.557,0 2.817,-1.262 2.817,-2.817 0,-1.556 -1.26,-2.815 -2.817,-2.815 -1.555,0 -2.816,1.259 -2.816,2.815 C -2.816,-1.262 -1.555,0 0,0 m 8.242,-0.069 c 0.961,0 1.743,-0.782 1.743,-1.743 0,-0.962 -0.782,-1.745 -1.743,-1.745 -0.962,0 -1.742,0.783 -1.742,1.745 0,0.961 0.78,1.743 1.742,1.743 m -12.27,-0.667 c -0.041,-0.06 -0.652,-0.925 -1.135,-2.253 -0.362,-0.995 -0.346,-2.444 -0.346,-2.46 v -0.003 c 0,-0.34 0.019,-0.677 0.057,-1.011 0,-0.008 0,-0.013 0.002,-0.017 0.004,-0.043 0.011,-0.084 0.015,-0.127 0.03,-0.232 0.069,-0.466 0.119,-0.703 0.7,-0.177 4.878,-1.152 9.548,-0.502 2.927,0.408 5.149,1.273 6.499,1.927 1.121,0.544 1.842,1.036 2.12,1.239 C 12.574,-3.618 11.809,-2.006 11.108,-1 9.103,1.865 6.941,2.601 5.831,2.783 5.407,2.853 5.068,2.893 4.587,2.893 4.14,2.893 3.585,2.856 2.844,2.778 2.101,2.701 1.272,2.506 0.312,2.183 -1.036,1.731 -2.255,1.023 -3.215,0.135 L -3.248,0.104 c -0.142,-0.13 -0.439,-0.406 -0.78,-0.84"
             inkscape:connector-curvature="0" /></g><g
           transform="translate(392.3054,17.6704)"
           id="g146"><path
             id="path148"
             style="fill:#212120;fill-opacity:1;fill-rule:nonzero;stroke:none"
             d="M 0,0 C -0.002,0.005 -0.002,0.01 -0.002,0.018 -0.002,0.01 -0.002,0.005 0,0"
             inkscape:connector-curvature="0" /></g><g
           transform="translate(392.4365,16.8411)"
           id="g150"><path
             id="path152"
             style="fill:#212120;fill-opacity:1;fill-rule:nonzero;stroke:none"
             d="M 0,0 H 0.003 C -0.047,0.237 -0.086,0.471 -0.116,0.702 -0.086,0.469 -0.047,0.233 0,0"
             inkscape:connector-curvature="0" /></g><g
           transform="translate(393.2946,14.4348)"
           id="g154"><path
             id="path156"
             style="fill:#212120;fill-opacity:1;fill-rule:nonzero;stroke:none"
             d="M 0,0 C -0.006,0.01 -0.011,0.021 -0.017,0.033 -0.011,0.021 -0.006,0.01 0,0"
             inkscape:connector-curvature="0" /></g><g
           transform="translate(393.2128,14.5947)"
           id="g158"><path
             id="path160"
             style="fill:#212120;fill-opacity:1;fill-rule:nonzero;stroke:none"
             d="M 0,0 C -0.023,0.044 -0.044,0.09 -0.065,0.134 -0.044,0.087 -0.023,0.044 0,0"
             inkscape:connector-curvature="0" /></g><g
           transform="translate(392.6776,15.9141)"
           id="g162"><path
             id="path164"
             style="fill:#212120;fill-opacity:1;fill-rule:nonzero;stroke:none"
             d="M 0,0 C 0.127,-0.4 0.28,-0.788 0.457,-1.158 0.277,-0.78 0.127,-0.391 0.003,0 Z"
             inkscape:connector-curvature="0" /></g></g></g><g
       transform="translate(153.6533,441.894)"
       id="g174"><path
         id="path176"
         style="fill:#009e97;fill-opacity:1;fill-rule:evenodd;stroke:none"
         d="m 0,0 c 37.087,0 67.345,3.782 67.345,8.405 0,4.623 -30.258,8.458 -67.345,8.458 -37.087,0 -67.293,-3.835 -67.293,-8.458 C -67.293,3.782 -37.087,0 0,0"
         inkscape:connector-curvature="0" /></g><g
       transform="translate(107.058,563.6618)"
       id="g178"><path
         id="path180"
         style="fill:#ffeab9;fill-opacity:1;fill-rule:evenodd;stroke:none"
         d="m 0,0 c 0,0 -13.238,-5.096 -28.84,6.566 -15.654,11.715 -18.228,29.576 -18.228,29.576 0,0 4.518,-1.471 5.253,0.735 0.788,2.259 -4.465,1.523 -4.465,1.523 0,0 3.152,3.835 1.786,4.833 -1.366,0.946 -2.889,-3.572 -2.889,-3.572 0,0 0.21,5.621 -1.366,5.096 -1.629,-0.526 0.052,-4.571 0.052,-4.571 0,0 -2.521,3.363 -3.834,2.154 -1.314,-1.155 1.523,-3.362 1.891,-3.519 0.367,-0.105 0.473,-0.158 0.473,-0.158 0,0 -3.94,-0.683 -3.362,-2.364 0.577,-1.733 3.624,0.158 3.624,0.158 0,0 1.051,-17.756 15.077,-32.885 C -20.855,-11.557 1.208,-8.405 1.208,-8.405 Z"
         inkscape:connector-curvature="0" /></g><g
       transform="translate(199.4607,563.6618)"
       id="g182"><path
         id="path184"
         style="fill:#ffeab9;fill-opacity:1;fill-rule:evenodd;stroke:none"
         d="m 0,0 c 0,0 13.185,-5.096 28.787,6.566 15.655,11.715 18.229,29.576 18.229,29.576 0,0 -4.518,-1.471 -5.254,0.735 -0.735,2.259 4.518,1.523 4.518,1.523 0,0 -3.204,3.835 -1.838,4.833 1.418,0.946 2.889,-3.572 2.889,-3.572 0,0 -0.21,5.621 1.418,5.096 1.576,-0.526 -0.052,-4.571 -0.052,-4.571 0,0 2.521,3.363 3.782,2.154 1.313,-1.155 -1.471,-3.362 -1.839,-3.519 -0.367,-0.105 -0.473,-0.158 -0.473,-0.158 0,0 3.888,-0.683 3.31,-2.364 -0.578,-1.733 -3.625,0.158 -3.625,0.158 0,0 -1.05,-17.756 -15.024,-32.885 C 20.855,-11.557 -1.261,-8.405 -1.261,-8.405 Z"
         inkscape:connector-curvature="0" /></g><g
       transform="translate(148.2951,496.4741)"
       id="g186"><path
         id="path188"
         style="fill:#ffeab9;fill-opacity:1;fill-rule:evenodd;stroke:none"
         d="m 0,0 c 0.63,-4.36 2.101,-42.445 2.101,-42.445 l -3.152,-1.051 c 0,0 -5.41,42.445 -4.255,42.445 C -4.15,-1.051 0.053,-0.42 0,0"
         inkscape:connector-curvature="0" /></g><g
       transform="translate(155.702,496.4741)"
       id="g190"><path
         id="path192"
         style="fill:#ffeab9;fill-opacity:1;fill-rule:evenodd;stroke:none"
         d="m 0,0 c -0.63,-4.36 -2.101,-42.445 -2.101,-42.445 l 3.204,-1.051 c 0,0 5.358,42.445 4.203,42.445 C 4.203,-1.051 -0.053,-0.42 0,0"
         inkscape:connector-curvature="0" /></g><g
       transform="translate(150.8166,456.0775)"
       id="g194"><path
         id="path196"
         style="fill:#ff344e;fill-opacity:1;fill-rule:evenodd;stroke:none"
         d="m 0,0 -4.255,-0.578 c 0,0 -4.728,-3.414 -4.413,-3.887 0.316,-0.473 8.773,0.473 8.773,0.473 0,0 0.525,2.994 -0.105,3.992"
         inkscape:connector-curvature="0" /></g><g
       transform="translate(153.3906,456.1826)"
       id="g198"><path
         id="path200"
         style="fill:#ff344e;fill-opacity:1;fill-rule:evenodd;stroke:none"
         d="m 0,0 4.255,-0.63 c 0,0 4.728,-3.415 4.413,-3.888 -0.263,-0.472 -8.773,0.473 -8.773,0.473 0,0 -0.525,2.994 0.105,4.045"
         inkscape:connector-curvature="0" /></g><g
       transform="translate(219.7903,637.1532)"
       id="g202"><path
         id="path204"
         style="fill:#ff344e;fill-opacity:1;fill-rule:evenodd;stroke:none"
         d="m 0,0 -132.274,0.735 18.438,-139.365 c 0,0 14.131,-7.04 46.648,-6.357 32.517,0.736 48.119,6.357 48.119,6.357 z"
         inkscape:connector-curvature="0" /></g><g
       transform="translate(117.6693,637.731)"
       id="g206"><path
         id="path208"
         style="fill:#dbecea;fill-opacity:1;fill-rule:evenodd;stroke:none"
         d="M 0,0 -16.6,0.053 0.42,-142.833 c 3.888,-0.84 8.773,-1.628 14.709,-2.154 z m 41.395,-0.21 -14.919,0.052 v -145.406 c 2.679,-0.053 5.463,-0.053 8.457,0 2.417,0.052 4.781,0.157 7.04,0.262 z M 87.202,-0.473 71.6,-0.42 54.685,-144.409 c 6.829,0.683 12.398,1.524 16.705,2.364 z"
         inkscape:connector-curvature="0" /></g><g
       transform="translate(96.0264,656.9575)"
       id="g210"><path
         id="path212"
         style="fill:#fff68d;fill-opacity:1;fill-rule:evenodd;stroke:none"
         d="M 0,0 C 0.63,0 1.208,-0.053 1.786,-0.21 1.523,0.525 1.418,1.313 1.418,2.154 c 0,4.307 3.467,7.774 7.775,7.774 4.308,0 7.775,-3.467 7.775,-7.774 0,-1.471 -0.368,-2.784 -1.051,-3.94 3.099,-1.051 5.306,-3.94 5.306,-7.407 0,-4.308 -3.467,-7.775 -7.775,-7.775 -3.204,0 -5.936,1.944 -7.144,4.676 -1.419,-1.997 -3.677,-3.257 -6.304,-3.257 -4.308,0 -7.775,3.467 -7.775,7.774 C -7.775,-3.467 -4.308,0 0,0"
         inkscape:connector-curvature="0" /></g><g
       transform="translate(122.0819,665.4676)"
       id="g214"><path
         id="path216"
         style="fill:#fff68d;fill-opacity:1;fill-rule:evenodd;stroke:none"
         d="m 0,0 c 2.627,0 4.833,-1.628 5.778,-3.887 1.104,1.103 2.68,1.733 4.361,1.733 3.467,0 6.251,-2.784 6.251,-6.198 0,-3.468 -2.784,-6.252 -6.251,-6.252 -0.263,0 -0.578,0 -0.841,0.053 v -0.21 c 0,-3.415 -2.784,-6.199 -6.251,-6.199 -3.415,0 -6.251,2.784 -6.251,6.199 0,0.998 0.262,1.943 0.683,2.784 -2.207,0.998 -3.73,3.152 -3.73,5.726 C -6.251,-2.784 -3.467,0 0,0"
         inkscape:connector-curvature="0" /></g><g
       transform="translate(145.8787,668.9872)"
       id="g218"><path
         id="path220"
         style="fill:#fff68d;fill-opacity:1;fill-rule:evenodd;stroke:none"
         d="m 0,0 c 3.73,0 6.724,-2.994 6.724,-6.724 0,-0.735 -0.105,-1.523 -0.368,-2.206 0.368,0.052 0.736,0.105 1.103,0.105 3.678,0 6.724,-2.995 6.724,-6.724 0,-3.73 -3.046,-6.724 -6.724,-6.724 -1.786,0 -3.362,0.683 -4.517,1.733 -1.103,-2.259 -3.415,-3.835 -6.094,-3.835 -3.73,0 -6.724,2.995 -6.724,6.724 0,3.047 2.049,5.674 4.886,6.462 -1.051,1.156 -1.734,2.731 -1.734,4.465 C -6.724,-2.994 -3.677,0 0,0"
         inkscape:connector-curvature="0" /></g><g
       transform="translate(162.3735,665.2575)"
       id="g222"><path
         id="path224"
         style="fill:#fff68d;fill-opacity:1;fill-rule:evenodd;stroke:none"
         d="m 0,0 c 3.257,1.839 7.354,0.735 9.193,-2.469 0.368,-0.683 0.63,-1.418 0.788,-2.101 0.263,0.21 0.578,0.42 0.893,0.578 3.204,1.838 7.302,0.735 9.14,-2.469 1.839,-3.257 0.736,-7.355 -2.469,-9.193 -1.523,-0.841 -3.256,-1.051 -4.832,-0.736 0.21,-2.469 -0.999,-5.043 -3.362,-6.356 -3.205,-1.839 -7.302,-0.736 -9.141,2.521 -1.523,2.679 -1.05,5.936 1.051,8.038 -1.524,0.472 -2.889,1.523 -3.73,3.046 C -4.308,-5.936 -3.204,-1.839 0,0"
         inkscape:connector-curvature="0" /></g><g
       transform="translate(185.1721,661.8954)"
       id="g226"><path
         id="path228"
         style="fill:#fff68d;fill-opacity:1;fill-rule:evenodd;stroke:none"
         d="m 0,0 c 2.994,0.525 5.831,-1.471 6.356,-4.518 0.105,-0.578 0.105,-1.208 0,-1.786 0.263,0.053 0.578,0.158 0.841,0.21 2.994,0.526 5.883,-1.523 6.356,-4.517 0.525,-2.995 -1.471,-5.831 -4.465,-6.357 -1.418,-0.262 -2.784,0.053 -3.887,0.788 -0.578,-1.996 -2.207,-3.624 -4.413,-3.992 -2.994,-0.525 -5.831,1.523 -6.356,4.518 -0.421,2.469 0.893,4.885 3.047,5.883 -0.999,0.841 -1.734,1.996 -1.997,3.415 C -5.043,-3.362 -3.047,-0.525 0,0"
         inkscape:connector-curvature="0" /></g><g
       transform="translate(205.6594,667.9366)"
       id="g230"><path
         id="path232"
         style="fill:#fff68d;fill-opacity:1;fill-rule:evenodd;stroke:none"
         d="m 0,0 c 3.73,0 6.724,-2.994 6.724,-6.724 0,-0.788 -0.158,-1.523 -0.368,-2.206 0.315,0.052 0.683,0.105 1.051,0.105 3.73,0 6.724,-3.047 6.724,-6.724 0,-3.73 -2.994,-6.724 -6.724,-6.724 -1.734,0 -3.31,0.683 -4.518,1.733 -1.05,-2.259 -3.362,-3.835 -6.093,-3.835 -3.678,0 -6.724,2.995 -6.724,6.672 0,3.099 2.101,5.726 4.938,6.514 -1.104,1.155 -1.734,2.731 -1.734,4.465 C -6.724,-2.994 -3.73,0 0,0"
         inkscape:connector-curvature="0" /></g><g
       transform="translate(198.8303,684.2213)"
       id="g234"><path
         id="path236"
         style="fill:#fff68d;fill-opacity:1;fill-rule:evenodd;stroke:none"
         d="m 0,0 c 3.52,-1.208 5.358,-5.043 4.15,-8.563 -0.263,-0.735 -0.63,-1.418 -1.103,-1.943 0.368,-0.105 0.735,-0.158 1.05,-0.315 3.52,-1.209 5.359,-5.044 4.098,-8.563 -1.208,-3.467 -5.043,-5.306 -8.563,-4.098 -1.628,0.578 -2.889,1.734 -3.677,3.152 -1.786,-1.786 -4.465,-2.521 -7.039,-1.628 -3.467,1.208 -5.306,5.043 -4.098,8.562 1.051,2.89 3.835,4.676 6.777,4.466 -0.63,1.471 -0.683,3.204 -0.158,4.833 C -7.302,-0.63 -3.467,1.208 0,0"
         inkscape:connector-curvature="0" /></g><g
       transform="translate(175.664,687.0055)"
       id="g238"><path
         id="path240"
         style="fill:#fff68d;fill-opacity:1;fill-rule:evenodd;stroke:none"
         d="m 0,0 c 3.572,0 6.461,-2.679 6.461,-5.989 0,-0.683 -0.157,-1.365 -0.367,-1.943 0.315,0.052 0.683,0.052 1.05,0.052 3.572,0 6.462,-2.679 6.462,-5.936 0,-3.309 -2.89,-5.988 -6.462,-5.988 -1.681,0 -3.204,0.577 -4.36,1.576 -1.05,-2.049 -3.257,-3.467 -5.831,-3.467 -3.572,0 -6.461,2.679 -6.461,5.988 0,2.732 1.996,5.043 4.728,5.726 -1.051,1.051 -1.681,2.469 -1.681,3.992 C -6.461,-2.679 -3.572,0 0,0"
         inkscape:connector-curvature="0" /></g><g
       transform="translate(161.0602,682.3302)"
       id="g242"><path
         id="path244"
         style="fill:#fff68d;fill-opacity:1;fill-rule:evenodd;stroke:none"
         d="m 0,0 c -2.627,1.313 -5.831,0.315 -7.197,-2.311 -0.315,-0.526 -0.473,-1.104 -0.578,-1.681 -0.21,0.157 -0.472,0.315 -0.683,0.472 -2.626,1.314 -5.883,0.316 -7.196,-2.311 -1.366,-2.627 -0.368,-5.831 2.259,-7.197 1.26,-0.63 2.574,-0.735 3.834,-0.42 -0.052,-1.996 0.998,-3.94 2.89,-4.938 2.626,-1.366 5.831,-0.315 7.196,2.259 1.103,2.206 0.578,4.78 -1.103,6.356 1.156,0.473 2.206,1.366 2.837,2.574 C 3.625,-4.57 2.574,-1.366 0,0"
         inkscape:connector-curvature="0" /></g><g
       transform="translate(128.5433,685.5346)"
       id="g246"><path
         id="path248"
         style="fill:#fff68d;fill-opacity:1;fill-rule:evenodd;stroke:none"
         d="M 0,0 C 2.994,-0.946 4.675,-4.097 3.782,-7.092 3.572,-7.722 3.257,-8.3 2.889,-8.773 c 0.315,-0.052 0.631,-0.105 0.893,-0.21 2.995,-0.945 4.676,-4.097 3.783,-7.092 -0.946,-2.994 -4.098,-4.675 -7.092,-3.729 -1.419,0.42 -2.522,1.365 -3.205,2.521 -1.471,-1.576 -3.729,-2.259 -5.883,-1.628 -2.994,0.945 -4.675,4.097 -3.73,7.091 0.736,2.469 3.047,4.045 5.568,3.993 -0.577,1.261 -0.735,2.679 -0.315,4.045 C -6.146,-0.788 -2.994,0.893 0,0"
         inkscape:connector-curvature="0" /></g><g
       transform="translate(134.8471,702.6599)"
       id="g250"><path
         id="path252"
         style="fill:#fff68d;fill-opacity:1;fill-rule:evenodd;stroke:none"
         d="m 0,0 c 3.52,1.944 7.985,0.683 9.981,-2.837 0.42,-0.735 0.683,-1.523 0.84,-2.311 0.316,0.263 0.631,0.473 0.946,0.683 3.572,1.996 8.037,0.735 10.034,-2.784 1.943,-3.572 0.682,-8.038 -2.837,-9.981 -1.629,-0.946 -3.52,-1.156 -5.253,-0.788 0.21,-2.732 -1.156,-5.464 -3.677,-6.934 -3.573,-1.997 -8.038,-0.736 -10.034,2.836 -1.628,2.889 -1.051,6.514 1.261,8.773 -1.681,0.525 -3.152,1.681 -4.045,3.362 C -4.78,-6.461 -3.52,-1.996 0,0"
         inkscape:connector-curvature="0" /></g><g
       transform="translate(168.8874,711.4326)"
       id="g254"><path
         id="path256"
         style="fill:#fff68d;fill-opacity:1;fill-rule:evenodd;stroke:none"
         d="m 0,0 c 3.677,0 6.724,-3.204 6.724,-7.092 0,-0.84 -0.158,-1.628 -0.368,-2.364 0.315,0.053 0.683,0.105 1.051,0.105 3.73,0 6.724,-3.204 6.724,-7.091 0,-3.94 -2.994,-7.145 -6.724,-7.145 -1.734,0 -3.31,0.736 -4.518,1.892 -1.05,-2.417 -3.362,-4.098 -6.093,-4.098 -3.678,0 -6.724,3.152 -6.724,7.092 0,3.257 2.101,5.988 4.938,6.829 -1.104,1.261 -1.734,2.942 -1.734,4.78 C -6.724,-3.204 -3.73,0 0,0"
         inkscape:connector-curvature="0" /></g><g
       transform="translate(86.8334,645.6633)"
       id="g258"><path
         id="path260"
         style="fill:#dbecea;fill-opacity:1;fill-rule:evenodd;stroke:none"
         d="m 0,0 h 133.692 c 2.732,0 4.938,-2.259 4.938,-4.938 0,-2.732 -2.206,-4.99 -4.938,-4.99 H 0 c -2.732,0 -4.938,2.258 -4.938,4.99 C -4.938,-2.259 -2.732,0 0,0"
         inkscape:connector-curvature="0" /></g><g
       transform="translate(125.9693,567.6542)"
       id="g262"><path
         id="path264"
         style="fill:#21120d;fill-opacity:1;fill-rule:evenodd;stroke:none"
         d="m 0,0 c 3.52,0 6.409,2.837 6.409,6.356 0,3.52 -2.889,6.357 -6.409,6.357 -3.467,0 -6.356,-2.837 -6.356,-6.357 C -6.356,2.837 -3.467,0 0,0"
         inkscape:connector-curvature="0" /></g><g
       transform="translate(178.1329,567.6542)"
       id="g266"><path
         id="path268"
         style="fill:#21120d;fill-opacity:1;fill-rule:evenodd;stroke:none"
         d="m 0,0 c 3.52,0 6.409,2.837 6.409,6.356 0,3.52 -2.889,6.357 -6.409,6.357 -3.467,0 -6.356,-2.837 -6.356,-6.357 C -6.356,2.837 -3.467,0 0,0"
         inkscape:connector-curvature="0" /></g><g
       transform="translate(123.3427,547.4821)"
       id="g270"><path
         id="path272"
         style="fill:#db7499;fill-opacity:1;fill-rule:evenodd;stroke:none"
         d="m 0,0 c 4.99,0 9.035,2.837 9.035,6.356 0,3.52 -4.045,6.357 -9.035,6.357 -4.99,0 -9.035,-2.837 -9.035,-6.357 C -9.035,2.837 -4.99,0 0,0"
         inkscape:connector-curvature="0" /></g><g
       transform="translate(123.3427,560.1947)"
       id="g274"><path
         id="path276"
         style="fill:#e38fac;fill-opacity:1;fill-rule:evenodd;stroke:none"
         d="M 0,0 C 0.84,0 1.681,-0.105 2.469,-0.263 L 3.677,-12.187 C 2.574,-12.555 1.313,-12.713 0,-12.713 c -4.99,0 -9.035,2.837 -9.035,6.357 C -9.035,-2.837 -4.99,0 0,0"
         inkscape:connector-curvature="0" /></g><g
       transform="translate(183.8589,547.4821)"
       id="g278"><path
         id="path280"
         style="fill:#db7499;fill-opacity:1;fill-rule:evenodd;stroke:none"
         d="m 0,0 c 4.938,0 9.035,2.837 9.035,6.356 0,3.52 -4.097,6.357 -9.035,6.357 -4.99,0 -9.035,-2.837 -9.035,-6.357 C -9.035,2.837 -4.99,0 0,0"
         inkscape:connector-curvature="0" /></g><g
       transform="translate(180.1817,559.6169)"
       id="g282"><path
         id="path284"
         style="fill:#e38fac;fill-opacity:1;fill-rule:evenodd;stroke:none"
         d="m 0,0 -1.313,-11.084 c 1.418,-0.683 3.152,-1.051 4.99,-1.051 4.991,0 9.036,2.837 9.036,6.356 0,3.52 -4.045,6.357 -9.036,6.357 C 2.364,0.578 1.103,0.368 0,0"
         inkscape:connector-curvature="0" /></g><g
       transform="translate(142.5166,562.8213)"
       id="g286"><path
         id="path288"
         style="fill:#ff0045;fill-opacity:1;fill-rule:nonzero;stroke:none"
         d="M 0,0 C -0.158,0.473 0.105,0.946 0.578,1.103 1.051,1.261 1.576,0.998 1.734,0.525 2.259,-1.156 3.309,-2.627 4.57,-3.625 5.884,-4.57 7.459,-5.148 9.088,-5.148 c 1.733,0 3.362,0.578 4.675,1.628 1.314,1.051 2.312,2.522 2.837,4.308 0.105,0.473 0.63,0.788 1.103,0.63 0.473,-0.105 0.736,-0.63 0.63,-1.103 -0.63,-2.154 -1.891,-3.94 -3.467,-5.253 -1.628,-1.261 -3.624,-1.996 -5.778,-1.996 -2.049,0 -3.992,0.683 -5.568,1.891 C 1.944,-3.835 0.683,-2.101 0,0"
         inkscape:connector-curvature="0" /></g><g
       transform="translate(391.2528,41.5523)"
       id="g290"><path
         id="path292"
         style="fill:#009e97;fill-opacity:1;fill-rule:evenodd;stroke:none"
         d="m 0,0 c 28.945,0 52.531,3.257 52.531,7.197 0,3.992 -23.586,7.197 -52.531,7.197 -28.945,0 -52.531,-3.205 -52.531,-7.197 C -52.531,3.257 -28.945,0 0,0"
         inkscape:connector-curvature="0" /></g><g
       transform="translate(379.4332,103.2767)"
       id="g294"><path
         id="path296"
         style="fill:#ffeab9;fill-opacity:1;fill-rule:evenodd;stroke:none"
         d="m 0,0 c -0.473,-5.463 -9.613,-51.743 -9.613,-51.743 l -4.15,-0.316 c 0,0 5.726,52.637 7.092,52.269 C -5.306,-0.105 -0.053,-0.578 0,0"
         inkscape:connector-curvature="0" /></g><g
       transform="translate(370.8706,53.9497)"
       id="g298"><path
         id="path300"
         style="fill:#ff344e;fill-opacity:1;fill-rule:evenodd;stroke:none"
         d="m 0,0 -5.253,0.473 c 0,0 -6.672,-2.784 -6.461,-3.415 0.262,-0.683 10.716,-1.943 10.716,-1.943 0,0 1.523,3.467 0.998,4.885"
         inkscape:connector-curvature="0" /></g><g
       transform="translate(397.4515,103.2242)"
       id="g302"><path
         id="path304"
         style="fill:#ffeab9;fill-opacity:1;fill-rule:evenodd;stroke:none"
         d="m 0,0 c -0.473,-5.411 0.893,-52.584 0.893,-52.584 l 4.045,-1.051 c 0,0 3.099,52.847 1.681,52.795 C 5.201,-0.946 -0.053,-0.578 0,0"
         inkscape:connector-curvature="0" /></g><g
       transform="translate(397.9243,53.2668)"
       id="g306"><path
         id="path308"
         style="fill:#ff344e;fill-opacity:1;fill-rule:evenodd;stroke:none"
         d="m 0,0 5.306,-0.368 c 0,0 6.093,-3.887 5.778,-4.465 C 10.769,-5.463 0.21,-4.99 0.21,-4.99 0.21,-4.99 -0.735,-1.313 0,0"
         inkscape:connector-curvature="0" /></g><g
       transform="translate(347.1789,184.175)"
       id="g310"><path
         id="path312"
         style="fill:#ffeab9;fill-opacity:1;fill-rule:evenodd;stroke:none"
         d="m 0,0 c 0,0 -16.337,-6.356 -35.669,8.142 -19.384,14.446 -22.536,36.562 -22.536,36.562 0,0 5.569,-1.891 6.514,0.893 0.893,2.784 -5.621,1.891 -5.621,1.891 0,0 3.94,4.728 2.259,5.936 -1.681,1.209 -3.572,-4.36 -3.572,-4.36 0,0 0.263,6.882 -1.734,6.252 -1.943,-0.631 0.106,-5.621 0.106,-5.621 0,0 -3.152,4.15 -4.728,2.679 -1.629,-1.471 1.838,-4.203 2.311,-4.36 0.473,-0.158 0.578,-0.263 0.578,-0.263 0,0 -4.833,-0.788 -4.098,-2.889 0.683,-2.101 4.466,0.21 4.466,0.21 0,0 1.313,-21.958 18.596,-40.659 17.283,-18.754 44.599,-14.814 44.599,-14.814 z"
         inkscape:connector-curvature="0" /></g><g
       transform="translate(429.7057,174.9821)"
       id="g314"><path
         id="path316"
         style="fill:#ffeab9;fill-opacity:1;fill-rule:evenodd;stroke:none"
         d="M 0,0 C 0,0 16.337,6.304 35.669,-8.142 55,-22.589 58.205,-44.704 58.205,-44.704 c 0,0 -5.621,1.838 -6.514,-0.946 -0.946,-2.784 5.568,-1.838 5.568,-1.838 0,0 -3.94,-4.728 -2.206,-5.936 1.681,-1.209 3.519,4.36 3.519,4.36 0,0 -0.262,-6.882 1.734,-6.252 1.996,0.578 -0.053,5.621 -0.053,5.621 0,0 3.1,-4.15 4.728,-2.679 1.576,1.471 -1.891,4.15 -2.311,4.36 -0.473,0.158 -0.63,0.263 -0.63,0.263 0,0 4.832,0.788 4.15,2.889 -0.736,2.101 -4.466,-0.262 -4.466,-0.262 0,0 -1.365,21.958 -18.648,40.711 C 25.793,14.341 -1.523,10.401 -1.523,10.401 Z"
         inkscape:connector-curvature="0" /></g><g
       transform="translate(391.2528,243.9558)"
       id="g318"><path
         id="path320"
         style="fill:#ff344e;fill-opacity:1;fill-rule:evenodd;stroke:none"
         d="M 0,0 -55.158,0.84 -48.592,-138.368 0,-137.475 48.592,-138.368 55.158,0.84 Z"
         inkscape:connector-curvature="0" /></g><path
       id="path322"
       style="fill:#dbecea;fill-opacity:1;fill-rule:evenodd;stroke:none"
       d="m 341.295,97.708 h 99.915 v 11.82 h -99.915 z"
       inkscape:connector-curvature="0" /><g
       transform="translate(459.3334,310.0403)"
       id="g324"><path
         id="path326"
         style="fill:#bf2b3c;fill-opacity:1;fill-rule:nonzero;stroke:none"
         d="m 0,0 -36.772,-17.073 c -0.158,-0.105 -0.578,-0.42 -0.578,-0.735 0,-2.732 -4.78,-33.515 -4.938,-34.671 l -7.039,1.051 0.053,0.157 v 0.158 l 0.157,0.998 c 0.946,5.936 4.675,30.153 4.675,32.307 0,4.833 4.571,7.092 4.623,7.092 l 0.053,0.052 36.772,17.073 z"
         inkscape:connector-curvature="0" /></g><path
       id="path328"
       style="fill:#ccdbe2;fill-opacity:1;fill-rule:evenodd;stroke:none"
       d="m 355.111,254.62 h 72.231 v 8.563 h -72.231 z"
       inkscape:connector-curvature="0" /><path
       id="path330"
       style="fill:#dbecea;fill-opacity:1;fill-rule:evenodd;stroke:none"
       d="m 332.155,239.543 h 118.196 v 17.23 H 332.155 Z"
       inkscape:connector-curvature="0" /><g
       transform="translate(368.1389,184.1225)"
       id="g332"><path
         id="path334"
         style="fill:#21120d;fill-opacity:1;fill-rule:evenodd;stroke:none"
         d="m 0,0 c 3.204,0 5.778,2.574 5.778,5.778 0,3.205 -2.574,5.831 -5.778,5.831 -3.204,0 -5.831,-2.626 -5.831,-5.831 C -5.831,2.574 -3.204,0 0,0"
         inkscape:connector-curvature="0" /></g><g
       transform="translate(415.6799,184.1225)"
       id="g336"><path
         id="path338"
         style="fill:#21120d;fill-opacity:1;fill-rule:evenodd;stroke:none"
         d="m 0,0 c 3.204,0 5.778,2.574 5.778,5.778 0,3.205 -2.574,5.831 -5.778,5.831 -3.204,0 -5.831,-2.626 -5.831,-5.831 C -5.831,2.574 -3.204,0 0,0"
         inkscape:connector-curvature="0" /></g><g
       transform="translate(365.7225,165.7365)"
       id="g340"><path
         id="path342"
         style="fill:#ff5b6c;fill-opacity:1;fill-rule:evenodd;stroke:none"
         d="m 0,0 c 4.518,0 8.195,2.627 8.195,5.778 0,3.205 -3.677,5.831 -8.195,5.831 -4.518,0 -8.247,-2.626 -8.247,-5.831 C -8.247,2.627 -4.518,0 0,0"
         inkscape:connector-curvature="0" /></g><g
       transform="translate(420.8805,165.7365)"
       id="g344"><path
         id="path346"
         style="fill:#ff5b6c;fill-opacity:1;fill-rule:evenodd;stroke:none"
         d="m 0,0 c 4.518,0 8.195,2.627 8.195,5.778 0,3.205 -3.677,5.831 -8.195,5.831 -4.57,0 -8.247,-2.626 -8.247,-5.831 C -8.247,2.627 -4.57,0 0,0"
         inkscape:connector-curvature="0" /></g><g
       transform="translate(383.2155,179.7099)"
       id="g348"><path
         id="path350"
         style="fill:#ff0045;fill-opacity:1;fill-rule:nonzero;stroke:none"
         d="M 0,0 C -0.158,0.42 0.105,0.893 0.525,1.051 0.946,1.156 1.418,0.946 1.523,0.525 2.049,-1.051 2.994,-2.364 4.15,-3.257 5.358,-4.15 6.777,-4.675 8.3,-4.675 c 1.523,0 2.994,0.525 4.202,1.471 1.209,0.998 2.102,2.364 2.575,3.939 0.157,0.473 0.577,0.683 1.05,0.578 0.42,-0.105 0.683,-0.578 0.525,-0.998 -0.525,-1.943 -1.681,-3.624 -3.151,-4.78 C 12.03,-5.621 10.191,-6.304 8.3,-6.304 6.409,-6.304 4.623,-5.673 3.152,-4.57 1.734,-3.467 0.578,-1.891 0,0"
         inkscape:connector-curvature="0" /></g><g
       transform="matrix(0.89648611,0,0,0.89648611,21.921233,882.65037)"
       id="g352"><path
         id="path354"
         style="fill:#ffeab9;fill-opacity:1;fill-rule:evenodd;stroke:none"
         d="m 0,0 -47.488,-27.264 c 0,0 -3.73,2.101 -4.413,1.366 -0.63,-0.735 2.364,-3.047 2.364,-3.047 0,0 -3.415,-2.574 -3.415,-3.624 0,-0.999 4.571,1.681 4.571,1.681 0,0 -3.047,-3.415 -2.049,-4.413 0.998,-0.998 3.414,3.257 3.414,3.257 0,0 1.156,-3.73 2.207,-3.572 1.05,0.157 0,4.097 0,4.097 0,0 1.103,-2.259 2.574,-2.154 1.523,0.105 -2.154,4.098 -2.154,4.098 L 0,-10.139 Z"
         inkscape:connector-curvature="0" /></g><g
       transform="matrix(0.89648611,0,0,0.89648611,121.75975,877.94104)"
       id="g356"><path
         id="path358"
         style="fill:#ffeab9;fill-opacity:1;fill-rule:evenodd;stroke:none"
         d="m 0,0 50.43,21.328 c 0,0 0.63,4.202 1.629,4.307 0.945,0.053 0.998,-3.729 0.998,-3.729 0,0 4.097,1.155 4.938,0.525 0.788,-0.578 -4.098,-2.574 -4.098,-2.574 0,0 4.57,0.368 4.728,-1.051 0.21,-1.471 -4.675,-0.735 -4.675,-0.735 0,0 2.311,-3.205 1.523,-3.94 -0.788,-0.735 -3.257,2.469 -3.257,2.469 0,0 1.156,-2.259 0.158,-3.362 C 51.376,12.082 50.43,17.44 50.43,17.44 L 8.09,-6.146 Z"
         inkscape:connector-curvature="0" /></g><g
       transform="matrix(0.89648611,0,0,0.89648611,70.616117,835.03871)"
       id="g364"><path
         id="path366"
         style="fill:#ffeab9;fill-opacity:1;fill-rule:evenodd;stroke:none"
         d="m 0,0 c 0.63,-4.203 2.049,-40.712 2.049,-40.712 l -3.047,-0.998 c 0,0 -5.148,40.712 -4.098,40.712 1.104,0 5.148,0.578 5.096,0.998"
         inkscape:connector-curvature="0" /></g><g
       transform="matrix(0.89648611,0,0,0.89648611,77.020793,835.03871)"
       id="g368"><path
         id="path370"
         style="fill:#ffeab9;fill-opacity:1;fill-rule:evenodd;stroke:none"
         d="m 0,0 c -0.63,-4.203 -2.049,-40.712 -2.049,-40.712 l 3.047,-0.998 c 0,0 5.201,40.712 4.098,40.712 C 3.992,-0.998 -0.052,-0.42 0,0"
         inkscape:connector-curvature="0" /></g><g
       transform="matrix(0.89648611,0,0,0.89648611,72.782386,800.33071)"
       id="g372"><path
         id="path374"
         style="fill:#ff344e;fill-opacity:1;fill-rule:evenodd;stroke:none"
         d="m 0,0 -4.045,-0.578 c 0,0 -4.518,-3.309 -4.255,-3.73 0.315,-0.472 8.458,0.421 8.458,0.421 0,0 0.472,2.889 -0.158,3.887"
         inkscape:connector-curvature="0" /></g><g
       transform="matrix(0.89648611,0,0,0.89648611,75.042876,800.37778)"
       id="g376"><path
         id="path378"
         style="fill:#ff344e;fill-opacity:1;fill-rule:evenodd;stroke:none"
         d="m 0,0 4.045,-0.578 c 0,0 4.57,-3.309 4.255,-3.73 -0.315,-0.472 -8.405,0.421 -8.405,0.421 0,0 -0.525,2.889 0.105,3.887"
         inkscape:connector-curvature="0" /></g><path
       id="path380"
       style="fill:#454545;fill-opacity:1;fill-rule:evenodd;stroke:none;stroke-width:0.8964861"
       d="M 13.114601,818.08481 H 136.17077 v 98.61437 H 13.114601 Z"
       inkscape:connector-curvature="0" /><g
       transform="matrix(0.89648611,0,0,0.89648611,81.8715,893.57611)"
       id="g382"><path
         id="path384"
         style="fill:#696765;fill-opacity:1;fill-rule:evenodd;stroke:none"
         d="M 0,0 49.905,5.621 50.85,-2.942 0.946,-8.563 Z"
         inkscape:connector-curvature="0" /></g><g
       transform="matrix(0.89648611,0,0,0.89648611,26.536433,899.79253)"
       id="g386"><path
         id="path388"
         style="fill:#696765;fill-opacity:1;fill-rule:evenodd;stroke:none"
         d="M 0,0 48.171,-8.3 46.7,-16.81 -1.471,-8.458 Z"
         inkscape:connector-curvature="0" /></g><path
       id="path390"
       style="fill:#696765;fill-opacity:1;fill-rule:evenodd;stroke:none;stroke-width:0.8964861"
       d="M 25.547071,863.95442 H 127.17543 v 5.60393 H 25.547071 Z"
       inkscape:connector-curvature="0" /><path
       id="path392"
       style="fill:#696765;fill-opacity:1;fill-rule:evenodd;stroke:none;stroke-width:0.8964861"
       d="M 25.547071,843.37468 H 127.17543 v 5.60394 H 25.547071 Z"
       inkscape:connector-curvature="0" /><path
       id="path394"
       style="fill:#696765;fill-opacity:1;fill-rule:evenodd;stroke:none;stroke-width:0.8964861"
       d="m 53.945062,844.69252 h 5.603934 v -16.29453 h -5.603934 z"
       inkscape:connector-curvature="0" /><path
       id="path396"
       style="fill:#696765;fill-opacity:1;fill-rule:evenodd;stroke:none;stroke-width:0.8964861"
       d="m 93.221015,844.69252 h 5.557317 v -16.29453 h -5.557317 z"
       inkscape:connector-curvature="0" /><g
       transform="matrix(0.89648611,0,0,0.89648611,11.466412,927.01262)"
       id="g398"><path
         id="path400"
         style="fill:#ffffff;fill-opacity:1;fill-rule:evenodd;stroke:none"
         d="M 0,0 H 144.882 V -17.23 H -7.249 v 9.088 z"
         inkscape:connector-curvature="0" /></g><g
       transform="matrix(0.89648611,0,0,0.89648611,116.67363,927.01262)"
       id="g402"><path
         id="path404"
         style="fill:#343333;fill-opacity:1;fill-rule:evenodd;stroke:none"
         d="M 0,0 H 9.403 L -2.732,-17.23 h -9.35 z m -32.044,0 h 9.35 l -12.082,-17.23 h -9.35 z m -32.044,0 h 9.35 L -66.82,-17.23 h -9.351 z m -32.044,0 h 9.35 l -12.082,-17.23 h -9.351 z"
         inkscape:connector-curvature="0" /></g><g
       transform="matrix(0.89648611,0,0,0.89648611,11.560632,926.58877)"
       id="g406"><path
         id="path408"
         style="fill:#ffffff;fill-opacity:1;fill-rule:evenodd;stroke:none"
         d="M 0,0 131.854,59.938 124.71,75.593 -13.711,12.66 l 3.73,-8.3 z"
         inkscape:connector-curvature="0" /></g><g
       transform="matrix(0.89648611,0,0,0.89648611,107.34919,970.15046)"
       id="g410"><path
         id="path412"
         style="fill:#343333;fill-opacity:1;fill-rule:evenodd;stroke:none"
         d="m 0,0 8.51,3.835 -18.176,10.664 -8.51,-3.835 z m -29.207,-13.29 8.51,3.887 -18.124,10.664 -8.51,-3.888 z m -29.155,-13.291 8.51,3.887 -18.176,10.664 -8.51,-3.887 z m -29.208,-13.238 8.51,3.835 -18.123,10.664 -8.51,-3.835 z"
         inkscape:connector-curvature="0" /></g><g
       transform="matrix(0.89648611,0,0,0.89648611,10.76007,931.72205)"
       id="g414"><path
         id="path416"
         style="fill:#343333;fill-opacity:1;fill-rule:evenodd;stroke:none"
         d="M 0,0 C 2.259,0 4.097,1.839 4.097,4.045 4.097,6.304 2.259,8.142 0,8.142 -2.206,8.142 -4.045,6.304 -4.045,4.045 -4.045,1.839 -2.206,0 0,0"
         inkscape:connector-curvature="0" /></g><g
       transform="matrix(0.89648611,0,0,0.89648611,54.039103,874.26769)"
       id="g418"><path
         id="path420"
         style="fill:#21120d;fill-opacity:1;fill-rule:evenodd;stroke:none"
         d="M 0,0 C 2.469,0 4.465,1.996 4.465,4.465 4.465,6.987 2.469,8.983 0,8.983 -2.469,8.983 -4.518,6.987 -4.518,4.465 -4.518,1.996 -2.469,0 0,0"
         inkscape:connector-curvature="0" /></g><g
       transform="matrix(0.89648611,0,0,0.89648611,93.126884,874.07933)"
       id="g422"><path
         id="path424"
         style="fill:#21120d;fill-opacity:1;fill-rule:evenodd;stroke:none"
         d="M 0,0 C 2.469,0 4.465,1.996 4.465,4.465 4.465,6.987 2.469,8.983 0,8.983 -2.521,8.983 -4.518,6.987 -4.518,4.465 -4.518,1.996 -2.521,0 0,0"
         inkscape:connector-curvature="0" /></g><g
       transform="matrix(0.89648611,0,0,0.89648611,50.88383,852.69886)"
       id="g426"><path
         id="path428"
         style="fill:#fac1d7;fill-opacity:1;fill-rule:evenodd;stroke:none"
         d="M 0,0 C 3.52,0 6.356,1.996 6.356,4.518 6.356,6.987 3.52,8.983 0,8.983 -3.52,8.983 -6.356,6.987 -6.356,4.518 -6.356,1.996 -3.52,0 0,0"
         inkscape:connector-curvature="0" /></g><g
       transform="matrix(0.89648611,0,0,0.89648611,94.680942,851.75701)"
       id="g430"><path
         id="path432"
         style="fill:#fac1d7;fill-opacity:1;fill-rule:evenodd;stroke:none"
         d="M 0,0 C 3.52,0 6.409,2.049 6.409,4.518 6.409,6.987 3.52,9.035 0,9.035 -3.52,9.035 -6.356,6.987 -6.356,4.518 -6.356,2.049 -3.52,0 0,0"
         inkscape:connector-curvature="0" /></g><g
       transform="matrix(0.89648611,0,0,0.89648611,67.790483,858.91518)"
       id="g434"><path
         id="path436"
         style="fill:#ff88aa;fill-opacity:1;fill-rule:evenodd;stroke:none"
         d="m 0,0 c -0.105,0.315 0.105,0.683 0.42,0.788 0.315,0.105 0.683,-0.053 0.788,-0.42 0.42,-1.209 1.103,-2.207 2.049,-2.89 0.893,-0.682 1.996,-1.103 3.204,-1.103 1.209,0 2.312,0.421 3.257,1.156 0.946,0.735 1.629,1.786 1.997,3.047 0.105,0.315 0.472,0.525 0.788,0.42 0.367,-0.052 0.525,-0.42 0.42,-0.788 -0.42,-1.471 -1.261,-2.784 -2.417,-3.677 C 9.351,-4.36 7.932,-4.885 6.461,-4.885 4.99,-4.885 3.625,-4.413 2.469,-3.52 1.366,-2.679 0.473,-1.471 0,0"
         inkscape:connector-curvature="0" /></g><g
       transform="translate(175.664,100.3349)"
       id="g438"><path
         id="path440"
         style="fill:#009e97;fill-opacity:1;fill-rule:evenodd;stroke:none"
         d="m 0,0 c 39.766,0 72.231,3.257 72.231,7.197 0,3.992 -32.465,7.197 -72.231,7.197 -39.819,0 -72.231,-3.205 -72.231,-7.197 C -72.231,3.257 -39.819,0 0,0"
         inkscape:connector-curvature="0" /></g><g
       transform="translate(202.5075,249.7342)"
       id="g442"><path
         id="path444"
         style="fill:#ffeab9;fill-opacity:1;fill-rule:evenodd;stroke:none"
         d="m 0,0 c 0,0 16.337,-6.356 35.721,8.09 19.332,14.499 22.484,36.562 22.484,36.562 0,0 -5.569,-1.839 -6.462,0.945 -0.945,2.784 5.569,1.839 5.569,1.839 0,0 -3.94,4.78 -2.259,5.988 1.681,1.209 3.572,-4.36 3.572,-4.36 0,0 -0.263,6.882 1.734,6.252 1.943,-0.631 -0.106,-5.621 -0.106,-5.621 0,0 3.152,4.15 4.728,2.679 1.629,-1.471 -1.838,-4.203 -2.311,-4.36 -0.473,-0.21 -0.578,-0.263 -0.578,-0.263 0,0 4.833,-0.788 4.098,-2.889 -0.683,-2.101 -4.466,0.21 -4.466,0.21 0,0 -1.313,-21.958 -18.596,-40.659 C 25.845,-14.341 -1.471,-10.401 -1.471,-10.401 Z"
         inkscape:connector-curvature="0" /></g><g
       transform="translate(101.227,306.0479)"
       id="g446"><path
         id="path448"
         style="fill:#ffeab9;fill-opacity:1;fill-rule:evenodd;stroke:none"
         d="m 0,0 88.988,18.964 31.834,-149.767 -88.988,-18.911 z"
         inkscape:connector-curvature="0" /></g><g
       transform="translate(168.4146,152.7613)"
       id="g450"><path
         id="path452"
         style="fill:#ffeab9;fill-opacity:1;fill-rule:evenodd;stroke:none"
         d="m 0,0 2.049,0.473 1.418,0.262 2.049,0.473 c -0.263,2.312 -0.263,6.357 1.208,12.03 0.315,1.208 0.578,2.206 0.788,3.099 V 16.39 L 0.473,14.866 -0.946,14.604 -8.037,13.08 -7.985,13.028 c 0.578,-0.683 1.208,-1.524 1.996,-2.469 C -2.364,5.936 -0.735,2.259 0,0 m 17.283,3.677 2.049,0.473 1.418,0.263 2.049,0.472 c -0.263,2.312 -0.263,6.357 1.208,12.03 0.315,1.208 0.578,2.206 0.84,3.099 l -0.052,0.053 -7.039,-1.523 -1.419,-0.316 -7.091,-1.47 0.052,-0.053 c 0.578,-0.683 1.208,-1.523 1.996,-2.469 3.677,-4.623 5.253,-8.3 5.989,-10.559 m 17.283,3.677 2.048,0.473 1.419,0.263 2.048,0.473 c -0.21,2.311 -0.262,6.356 1.209,12.029 0.315,1.209 0.578,2.207 0.84,3.1 l -0.052,0.052 -7.04,-1.523 -1.418,-0.315 -7.039,-1.471 v -0.053 c 0.578,-0.683 1.208,-1.523 1.996,-2.469 3.677,-4.623 5.253,-8.352 5.989,-10.559 m -88.201,159.906 2.049,0.42 1.419,0.315 2.101,0.473 c 0.683,-2.259 2.311,-5.988 5.936,-10.559 0.788,-0.945 1.471,-1.786 2.049,-2.469 v -0.052 l -7.092,-1.524 -1.419,-0.262 -7.039,-1.524 v 0.053 c 0.21,0.893 0.526,1.891 0.788,3.047 1.524,5.726 1.471,9.771 1.208,12.082 m 17.283,3.677 2.049,0.42 1.418,0.316 2.102,0.42 c 0.683,-2.207 2.311,-5.936 5.988,-10.506 0.736,-0.946 1.419,-1.787 1.996,-2.469 v -0.053 l -7.091,-1.523 -1.366,-0.316 -7.092,-1.47 v 0.052 c 0.21,0.893 0.525,1.891 0.841,3.047 1.47,5.726 1.418,9.771 1.155,12.082 m 17.283,3.677 2.049,0.421 1.418,0.315 2.101,0.42 c 0.683,-2.206 2.312,-5.936 5.989,-10.506 0.735,-0.946 1.418,-1.786 1.996,-2.469 v -0.053 l -7.039,-1.523 -1.418,-0.315 -7.092,-1.471 v 0.052 c 0.263,0.841 0.525,1.891 0.84,3.047 1.471,5.726 1.419,9.771 1.156,12.082 m 17.283,3.678 2.101,0.42 1.366,0.315 2.101,0.42 c 0.683,-2.206 2.312,-5.936 5.989,-10.506 0.735,-0.946 1.418,-1.786 1.996,-2.469 v -0.053 l -7.039,-1.523 -1.419,-0.315 -7.091,-1.471 v 0.052 c 0.262,0.841 0.525,1.892 0.84,3.047 1.471,5.674 1.419,9.771 1.156,12.083 m -15.497,-181.969 2.049,0.473 1.418,0.262 2.049,0.473 c -0.263,2.311 -0.263,6.356 1.208,12.03 0.315,1.208 0.578,2.206 0.788,3.099 v 0.053 l -7.039,-1.524 -1.418,-0.262 -7.092,-1.524 0.052,-0.052 c 0.578,-0.683 1.209,-1.524 1.997,-2.469 3.624,-4.571 5.253,-8.3 5.988,-10.559"
         inkscape:connector-curvature="0" /></g><g
       transform="translate(169.1501,305.9953)"
       id="g454"><path
         id="path456"
         style="fill:#f08e6c;fill-opacity:1;fill-rule:nonzero;stroke:none"
         d="m 0,0 -40.922,-8.72 c -3.204,-0.683 -5.778,-2.574 -7.459,-5.096 -1.629,-2.574 -2.312,-5.726 -1.629,-8.878 l 21.013,-98.864 c 0.683,-3.204 2.574,-5.778 5.095,-7.407 v -0.052 c 2.574,-1.629 5.726,-2.311 8.878,-1.629 l 40.975,8.721 c 3.151,0.683 5.778,2.574 7.406,5.095 1.629,2.522 2.312,5.674 1.629,8.878 L 13.973,-9.088 C 13.29,-5.936 11.399,-3.309 8.878,-1.681 6.356,-0.053 3.204,0.63 0,0 m -41.447,-6.356 40.974,8.72 c 3.835,0.84 7.617,0 10.664,-1.996 3.047,-1.996 5.358,-5.096 6.199,-8.931 l 21.012,-98.916 c 0.788,-3.782 0,-7.617 -1.996,-10.664 -1.996,-3.047 -5.148,-5.358 -8.983,-6.199 l -40.922,-8.667 c -3.834,-0.841 -7.669,0 -10.716,1.996 -3.047,1.943 -5.358,5.095 -6.146,8.93 l -21.065,98.864 c -0.788,3.835 0.052,7.67 1.996,10.717 h 0.052 c 1.944,3.046 5.096,5.358 8.931,6.146"
         inkscape:connector-curvature="0" /></g><g
       transform="translate(145.8787,253.9893)"
       id="g458"><path
         id="path460"
         style="fill:#21120d;fill-opacity:1;fill-rule:evenodd;stroke:none"
         d="M 0,0 C 2.259,0.473 4.465,-0.998 4.938,-3.257 5.358,-5.516 3.94,-7.67 1.681,-8.142 -0.578,-8.615 -2.784,-7.144 -3.257,-4.938 -3.677,-2.679 -2.259,-0.473 0,0"
         inkscape:connector-curvature="0" /></g><g
       transform="translate(179.2886,260.8183)"
       id="g462"><path
         id="path464"
         style="fill:#21120d;fill-opacity:1;fill-rule:evenodd;stroke:none"
         d="M 0,0 C 2.259,0.473 4.465,-0.946 4.885,-3.204 5.358,-5.463 3.887,-7.67 1.681,-8.142 -0.578,-8.615 -2.784,-7.144 -3.257,-4.885 -3.73,-2.627 -2.259,-0.42 0,0"
         inkscape:connector-curvature="0" /></g><g
       transform="translate(146.8242,240.7513)"
       id="g466"><path
         id="path468"
         style="fill:#ff5b6c;fill-opacity:1;fill-rule:evenodd;stroke:none"
         d="M 0,0 C 3.204,0.63 6.146,-0.683 6.619,-2.942 7.092,-5.148 4.885,-7.512 1.681,-8.195 -1.523,-8.825 -4.465,-7.512 -4.938,-5.306 -5.411,-3.047 -3.204,-0.683 0,0"
         inkscape:connector-curvature="0" /></g><g
       transform="translate(185.5924,248.6836)"
       id="g470"><path
         id="path472"
         style="fill:#ff5b6c;fill-opacity:1;fill-rule:evenodd;stroke:none"
         d="M 0,0 C 3.152,0.63 6.146,-0.63 6.619,-2.889 7.039,-5.148 4.833,-7.512 1.628,-8.195 -1.523,-8.825 -4.518,-7.512 -4.938,-5.253 -5.411,-3.047 -3.204,-0.683 0,0"
         inkscape:connector-curvature="0" /></g><g
       transform="translate(158.7489,244.9013)"
       id="g474"><path
         id="path476"
         style="fill:#ff0045;fill-opacity:1;fill-rule:nonzero;stroke:none"
         d="m 0,0 c -0.158,0.315 -0.053,0.63 0.263,0.788 0.262,0.158 0.63,0.105 0.788,-0.21 0.577,-0.998 1.418,-1.786 2.364,-2.259 0.945,-0.473 2.048,-0.63 3.099,-0.42 1.103,0.262 2.049,0.84 2.784,1.681 0.683,0.84 1.156,1.943 1.208,3.152 0.053,0.315 0.315,0.525 0.631,0.525 0.367,0 0.577,-0.315 0.577,-0.63 C 11.609,1.156 11.032,-0.158 10.191,-1.156 9.298,-2.206 8.142,-2.942 6.777,-3.204 5.463,-3.52 4.097,-3.309 2.942,-2.732 1.734,-2.154 0.735,-1.208 0,0"
         inkscape:connector-curvature="0" /></g><g
       transform="translate(121.6617,226.8305)"
       id="g478"><path
         id="path480"
         style="fill:#ffeab9;fill-opacity:1;fill-rule:evenodd;stroke:none"
         d="m 0,0 -61.252,-35.196 c 0,0 -4.832,2.679 -5.673,1.734 -0.84,-0.946 3.047,-3.94 3.047,-3.94 0,0 -4.413,-3.31 -4.413,-4.623 0,-1.313 5.831,2.101 5.831,2.101 0,0 -3.887,-4.36 -2.574,-5.673 1.313,-1.314 4.413,4.255 4.413,4.255 0,0 1.471,-4.886 2.836,-4.623 1.366,0.21 0,5.253 0,5.253 0,0 1.419,-2.889 3.362,-2.784 1.892,0.158 -2.836,5.306 -2.836,5.306 L 0,-13.133 Z"
         inkscape:connector-curvature="0" /></g><g
       transform="translate(147.1919,159.5903)"
       id="g482"><path
         id="path484"
         style="fill:#ffeab9;fill-opacity:1;fill-rule:evenodd;stroke:none"
         d="m 0,0 c -0.473,-5.463 -9.613,-51.743 -9.613,-51.743 l -4.15,-0.368 c 0,0 5.673,52.689 7.092,52.321 C -5.306,-0.105 -0.053,-0.578 0,0"
         inkscape:connector-curvature="0" /></g><g
       transform="translate(138.6293,110.2108)"
       id="g486"><path
         id="path488"
         style="fill:#ff344e;fill-opacity:1;fill-rule:evenodd;stroke:none"
         d="m 0,0 -5.253,0.525 c 0,0 -6.672,-2.784 -6.462,-3.414 0.263,-0.683 10.717,-1.944 10.717,-1.944 0,0 1.523,3.467 0.998,4.833"
         inkscape:connector-curvature="0" /></g><g
       transform="translate(209.6518,176.1377)"
       id="g490"><path
         id="path492"
         style="fill:#ffeab9;fill-opacity:1;fill-rule:evenodd;stroke:none"
         d="m 0,0 c 0.893,-5.831 14.131,-54.738 14.131,-54.738 l 4.465,-0.105 c 0,0 -9.981,56.051 -11.452,55.578 C 5.726,0.315 0.105,-0.63 0,0"
         inkscape:connector-curvature="0" /></g><g
       transform="translate(222.7321,124.0266)"
       id="g494"><path
         id="path496"
         style="fill:#ff344e;fill-opacity:1;fill-rule:evenodd;stroke:none"
         d="m 0,0 5.621,0.946 c 0,0 7.354,-2.522 7.144,-3.205 -0.21,-0.735 -11.347,-2.889 -11.347,-2.889 0,0 -1.891,3.625 -1.418,5.148"
         inkscape:connector-curvature="0" /></g><g
       transform="translate(199.84085,444.15619)"
       id="g4815"><path
         id="path500"
         style="fill:#c9c3c4;fill-opacity:1;fill-rule:evenodd;stroke:none"
         d="m 289.552,435.3276 -2.889,11.242 66.505,-7.933 c 0,0 2.679,-0.367 2.363,-3.677 -0.315,-3.309 -5.936,-18.176 -5.936,-18.176 0,0 -2.836,-1.628 -4.36,-0.472 -1.523,1.155 3.362,10.138 0.683,11.136 -2.731,0.998 -35.406,-3.729 -35.406,-3.729 z"
         inkscape:connector-curvature="0" /><path
         id="path504"
         style="fill:#c9c3c4;fill-opacity:1;fill-rule:evenodd;stroke:none"
         d="m 356.5295,369.4007 10.664,16.075 62.46,-6.514 c 0,0 2.626,-0.315 2.311,-3.625 -0.315,-3.309 -5.883,-18.176 -5.883,-18.176 0,0 -2.837,-1.681 -4.413,-0.525 -1.523,1.156 3.414,10.138 0.683,11.189 -1.944,0.683 -19.017,-1.471 -28.682,-2.784 -0.053,-0.053 -10.559,-7.144 -12.45,-8.037 -1.839,-0.841 -28.052,-4.886 -28.052,-4.886 0,0 -1.208,5.096 -2.049,6.934 z"
         inkscape:connector-curvature="0" /><path
         id="path508"
         style="fill:#ffffff;fill-opacity:1;fill-rule:evenodd;stroke:none"
         d="m 286.6628,446.5693 80.531,-61.094 c 0,0 -4.938,-12.397 -8.668,-21.853 -2.469,-6.146 -3.73,-10.296 -5.358,-11.504 -4.255,-3.047 -37.613,23.376 -37.403,27.946 0.158,4.571 3.73,14.026 1.524,16.443 -2.207,2.364 -4.413,0.788 -6.462,-0.683 -1.996,-1.524 -5.988,-3.835 -10.768,-2.102 -4.781,1.734 -23.009,18.754 -23.377,19.279 -0.368,0.526 -1.523,4.781 -0.473,7.46 1.524,4.097 10.454,26.108 10.454,26.108"
         inkscape:connector-curvature="0" /><path
         id="path512"
         style="fill:#0078ae;fill-opacity:1;fill-rule:evenodd;stroke:none"
         d="m 290.6026,435.4852 c 0.735,-0.21 17.756,-13.921 17.756,-13.921 0,0 0.683,-1.05 0.105,-3.257 -0.526,-2.154 -6.094,-16.232 -6.094,-16.232 0,0 -0.84,-1.576 -3.204,-0.315 -2.364,1.208 -15.445,14.183 -15.445,14.183 0,0 -1.786,1.524 -0.788,4.255 0.368,0.998 1.681,4.15 2.942,7.617 0.998,2.574 1.839,5.516 2.889,6.829 0.578,0.788 1.104,0.999 1.839,0.841"
         inkscape:connector-curvature="0" /><path
         id="path516"
         style="fill:#ff344e;fill-opacity:1;fill-rule:evenodd;stroke:none"
         d="m 330.2638,398.398 c 0.578,0.735 0.893,2.469 3.099,2.837 2.259,0.315 4.518,-1.576 4.518,-1.576 l 17.861,-13.396 c 0,0 1.103,-1.681 0.735,-3.782 -0.368,-2.049 -7.88,-17.808 -7.88,-17.808 0,0 -2.258,-2.206 -4.097,-0.788 -1.839,1.471 -19.594,15.864 -19.594,15.864 0,0 -0.736,0.578 -0.368,3.205 0.368,2.626 5.358,14.446 5.726,15.444"
         inkscape:connector-curvature="0" /></g><g
       transform="translate(640.0414,186.2238)"
       id="g522"><path
         id="path524"
         style="fill:#ffeab9;fill-opacity:1;fill-rule:evenodd;stroke:none"
         d="m 0,0 c 2.627,-4.728 30.1,-43.076 30.1,-43.076 l 3.94,1.366 c 0,0 -26.948,45.597 -28.051,44.704 C 4.833,2.154 0.263,-0.473 0,0"
         inkscape:connector-curvature="0" /></g><g
       transform="translate(668.3558,145.0917)"
       id="g526"><path
         id="path528"
         style="fill:#ff344e;fill-opacity:1;fill-rule:evenodd;stroke:none"
         d="m 0,0 4.623,2.627 c 0,0 7.197,0.21 7.249,-0.473 0.053,-0.683 -8.93,-6.199 -8.93,-6.199 0,0 -2.837,2.522 -2.942,4.045"
         inkscape:connector-curvature="0" /></g><g
       transform="translate(603.1119,187.2219)"
       id="g530"><path
         id="path532"
         style="fill:#ffeab9;fill-opacity:1;fill-rule:evenodd;stroke:none"
         d="m 0,0 c -2.679,-4.728 -30.153,-43.076 -30.153,-43.076 l -3.887,1.366 c 0,0 26.948,45.597 28.051,44.704 C -4.885,2.154 -0.263,-0.473 0,0"
         inkscape:connector-curvature="0" /></g><g
       transform="translate(574.7449,146.0898)"
       id="g534"><path
         id="path536"
         style="fill:#ff344e;fill-opacity:1;fill-rule:evenodd;stroke:none"
         d="m 0,0 -4.57,2.627 c 0,0 -7.25,0.21 -7.302,-0.473 -0.053,-0.683 8.93,-6.199 8.93,-6.199 0,0 2.837,2.574 2.942,4.045"
         inkscape:connector-curvature="0" /></g><g
       transform="translate(587.6151,296.5922)"
       id="g538"><path
         id="path540"
         style="fill:#ffeab9;fill-opacity:1;fill-rule:evenodd;stroke:none"
         d="m 0,0 -34.566,74.174 c 0,0 4.36,6.567 3.152,7.88 -1.261,1.313 -5.936,-3.835 -5.936,-3.835 0,0 -4.202,6.672 -6.041,6.829 -1.891,0.158 2.311,-8.562 2.311,-8.562 0,0 -5.725,6.093 -7.774,4.36 -1.996,-1.681 5.516,-6.724 5.516,-6.724 0,0 -7.092,-1.524 -6.935,-3.52 0.158,-1.943 7.46,-0.63 7.46,-0.63 0,0 -4.308,-1.681 -4.308,-4.413 -0.052,-2.731 7.827,3.362 7.827,3.362 L -8.458,-6.514 C -5.726,-4.518 -2.784,-2.206 0,0"
         inkscape:connector-curvature="0" /></g><g
       transform="translate(651.5983,273.1107)"
       id="g542"><path
         id="path544"
         style="fill:#ffeab9;fill-opacity:1;fill-rule:evenodd;stroke:none"
         d="m 0,0 42.393,91.089 c 0,0 -4.36,6.567 -3.1,7.88 1.209,1.313 5.936,-3.835 5.936,-3.835 0,0 4.203,6.672 6.042,6.829 1.838,0.158 -2.312,-8.562 -2.312,-8.562 0,0 5.674,6.093 7.722,4.36 1.997,-1.681 -5.463,-6.724 -5.463,-6.724 0,0 7.092,-1.524 6.934,-3.52 -0.157,-1.943 -7.459,-0.63 -7.459,-0.63 0,0 4.255,-1.681 4.307,-4.413 0.053,-2.731 -7.827,3.362 -7.827,3.362 L 12.502,1.103 Z"
         inkscape:connector-curvature="0" /></g><g
       transform="translate(636.6269,296.1194)"
       id="g546"><path
         id="path548"
         style="fill:#21120d;fill-opacity:1;fill-rule:evenodd;stroke:none"
         d="m 0,0 c 28.945,-6.251 47.383,-34.776 41.132,-63.721 -6.251,-28.944 -34.776,-47.33 -63.721,-41.132 -28.944,6.252 -47.33,34.776 -41.079,63.721 C -57.469,-12.187 -28.945,6.251 0,0"
         inkscape:connector-curvature="0" /></g><g
       transform="translate(685.6387,277.8385)"
       id="g550"><path
         id="path552"
         style="fill:#21120d;fill-opacity:1;fill-rule:evenodd;stroke:none"
         d="m 0,0 c 0,0 18.281,13.396 24.847,8.142 6.567,-5.253 10.717,-21.538 15.445,-26.423 4.727,-4.885 21.695,-6.619 30.258,-2.679 l 8.51,3.94 -5.989,16.705 c 0,0 -16.6,-9.876 -24.847,-8.143 C 37.612,-6.199 36.457,21.065 20.645,24.427 11.452,26.423 -6.829,13.028 -6.829,13.028 Z"
         inkscape:connector-curvature="0" /></g><g
       transform="translate(585.6189,251.3102)"
       id="g554"><path
         id="path556"
         style="fill:#f5f0e7;fill-opacity:1;fill-rule:evenodd;stroke:none"
         d="m 0,0 c 8.142,-1.734 13.29,-9.771 11.557,-17.913 -1.786,-8.09 -9.771,-13.291 -17.913,-11.505 -8.09,1.734 -13.291,9.719 -11.505,17.861 C -16.127,-3.415 -8.142,1.734 0,0 m 33.988,-34.25 c 8.142,-1.787 13.29,-9.771 11.557,-17.914 -1.786,-8.089 -9.771,-13.29 -17.913,-11.557 -8.09,1.787 -13.291,9.771 -11.505,17.914 1.734,8.142 9.718,13.29 17.861,11.557 m 39.819,10.663 c 8.142,-1.786 13.29,-9.77 11.557,-17.913 -1.734,-8.09 -9.771,-13.29 -17.914,-11.557 -8.09,1.786 -13.29,9.771 -11.504,17.914 1.733,8.142 9.718,13.29 17.861,11.556 M 53.004,54.002 C 61.147,52.269 66.295,44.231 64.561,36.142 62.828,27.999 54.79,22.851 46.648,24.585 c -8.09,1.733 -13.291,9.771 -11.505,17.86 1.734,8.143 9.719,13.291 17.861,11.557 M 88.463,17.493 c 8.09,-1.734 13.29,-9.771 11.504,-17.861 -1.733,-8.142 -9.718,-13.29 -17.86,-11.557 -8.143,1.734 -13.291,9.771 -11.557,17.861 1.786,8.142 9.77,13.291 17.913,11.557 M 12.765,41.5 C 20.907,39.766 26.108,31.729 24.322,23.639 22.589,15.497 14.551,10.296 6.461,12.082 c -8.142,1.734 -13.29,9.771 -11.557,17.861 1.734,8.142 9.771,13.29 17.861,11.557 m 43.023,25.372 c 41.132,-8.877 67.293,-49.379 58.415,-90.511 -8.825,-41.132 -49.379,-67.293 -90.511,-58.468 -41.132,8.878 -67.293,49.432 -58.415,90.565 8.825,41.132 49.379,67.292 90.511,58.414"
         inkscape:connector-curvature="0" /></g><g
       transform="translate(613.8808,260.6082)"
       id="g558"><path
         id="path560"
         style="fill:#21120d;fill-opacity:1;fill-rule:evenodd;stroke:none"
         d="m 0,0 c 2.679,-0.578 4.36,-3.204 3.782,-5.884 -0.578,-2.679 -3.204,-4.36 -5.883,-3.782 -2.679,0.578 -4.36,3.205 -3.783,5.884 C -5.306,-1.103 -2.679,0.578 0,0"
         inkscape:connector-curvature="0" /></g><g
       transform="translate(643.2983,254.2519)"
       id="g562"><path
         id="path564"
         style="fill:#21120d;fill-opacity:1;fill-rule:evenodd;stroke:none"
         d="m 0,0 c 2.679,-0.578 4.36,-3.204 3.782,-5.884 -0.578,-2.679 -3.204,-4.36 -5.883,-3.782 -2.679,0.578 -4.36,3.205 -3.782,5.884 C -5.306,-1.103 -2.679,0.578 0,0"
         inkscape:connector-curvature="0" /></g><g
       transform="translate(610.3087,246.7399)"
       id="g566"><path
         id="path568"
         style="fill:#ff5b6c;fill-opacity:1;fill-rule:evenodd;stroke:none"
         d="M 0,0 C 3.782,-0.788 6.409,-3.625 5.831,-6.304 5.253,-8.983 1.681,-10.506 -2.101,-9.666 -5.884,-8.878 -8.51,-6.041 -7.932,-3.362 -7.354,-0.683 -3.782,0.84 0,0"
         inkscape:connector-curvature="0" /></g><g
       transform="translate(642.2477,239.6482)"
       id="g570"><path
         id="path572"
         style="fill:#ff5b6c;fill-opacity:1;fill-rule:evenodd;stroke:none"
         d="m 0,0 c 3.782,-0.841 6.409,-3.677 5.831,-6.356 -0.578,-2.679 -4.15,-4.203 -7.932,-3.362 -3.783,0.84 -6.409,3.624 -5.831,6.303 C -7.354,-0.735 -3.782,0.788 0,0"
         inkscape:connector-curvature="0" /></g><g
       transform="translate(619.0814,245.7418)"
       id="g574"><path
         id="path576"
         style="fill:#ff0045;fill-opacity:1;fill-rule:nonzero;stroke:none"
         d="m 0,0 c 0,0.42 0.263,0.735 0.63,0.788 0.368,0 0.736,-0.263 0.788,-0.63 0.105,-1.419 0.683,-2.627 1.471,-3.625 0.841,-0.946 1.944,-1.629 3.205,-1.891 1.313,-0.315 2.626,-0.105 3.782,0.473 1.208,0.577 2.206,1.523 2.889,2.836 0.158,0.315 0.578,0.421 0.946,0.263 0.315,-0.158 0.473,-0.578 0.262,-0.946 C 13.185,-4.255 11.925,-5.463 10.506,-6.146 9.035,-6.882 7.407,-7.092 5.779,-6.724 4.255,-6.409 2.889,-5.568 1.839,-4.36 0.841,-3.204 0.158,-1.681 0,0"
         inkscape:connector-curvature="0" /></g><g
       transform="translate(684.3779,281.8309)"
       id="g578"><path
         id="path580"
         style="fill:#bdb8b2;fill-opacity:1;fill-rule:evenodd;stroke:none"
         d="m 0,0 c -9.718,15.077 -25.268,26.476 -44.231,30.573 -18.964,4.045 -37.771,0.053 -52.9,-9.666 -15.076,-9.77 -26.475,-25.267 -30.573,-44.231 -4.097,-18.964 -0.105,-37.823 9.666,-52.899 9.718,-15.129 25.268,-26.476 44.231,-30.573 18.964,-4.098 37.77,-0.105 52.899,9.613 15.077,9.771 26.476,25.268 30.574,44.231 C 13.763,-33.935 9.771,-15.129 0,0 M -44.126,31.099 C -25.005,27.001 -9.351,15.497 0.473,0.263 c 9.823,-15.182 13.868,-34.198 9.771,-53.32 -4.15,-19.121 -15.602,-34.775 -30.836,-44.599 -15.234,-9.823 -34.251,-13.816 -53.372,-9.718 -19.122,4.097 -34.723,15.602 -44.547,30.836 -9.876,15.234 -13.868,34.198 -9.771,53.319 4.15,19.122 15.602,34.776 30.836,44.599 15.234,9.824 34.198,13.869 53.32,9.719"
         inkscape:connector-curvature="0" /></g><g
       transform="translate(618.1358,133.3247)"
       id="g582"><path
         id="path584"
         style="fill:#009e97;fill-opacity:1;fill-rule:evenodd;stroke:none"
         d="m 0,0 c 52.636,0 95.555,3.257 95.555,7.197 0,3.992 -42.919,7.197 -95.555,7.197 -52.636,0 -95.555,-3.205 -95.555,-7.197 C -95.555,3.257 -52.636,0 0,0"
         inkscape:connector-curvature="0" /></g><g
       id="g5649"><g
         id="g586"
         transform="translate(405.1736,458.0211)"><path
           d="m 0,0 c 43.706,0 79.322,4.255 79.322,9.403 0,5.201 -35.616,9.403 -79.322,9.403 -43.706,0 -79.375,-4.202 -79.375,-9.403 C -79.375,4.255 -43.706,0 0,0"
           style="fill:#009e97;fill-opacity:1;fill-rule:evenodd;stroke:none"
           id="path588"
           inkscape:connector-curvature="0" /></g><g
         id="g590"
         transform="translate(369.3472,590.7155)"><path
           d="m 0,0 h -26.476 l -18.123,-16.705 c 0.735,16.863 0.735,38.873 0,55.736 L -26.476,22.326 H 0 Z"
           style="fill:#323131;fill-opacity:1;fill-rule:evenodd;stroke:none"
           id="path592"
           inkscape:connector-curvature="0" /></g><path
         d="m 314.557,564.292 h 12.082 v 75.172 h -12.082 z"
         style="fill:#c9c6c0;fill-opacity:1;fill-rule:evenodd;stroke:none"
         id="path594"
         inkscape:connector-curvature="0" /><g
         id="g596"
         transform="translate(446.4107,621.814)"><path
           d="M 0,0 H 18.386 L 29.68,6.409 c 1.944,-16.39 1.944,-9.824 0,-26.213 l -11.294,6.356 H 0 Z"
           style="fill:#323131;fill-opacity:1;fill-rule:evenodd;stroke:none"
           id="path598"
           inkscape:connector-curvature="0" /></g><path
         d="m 473.78,597.439 h 11.137 V 632.74 H 473.78 Z"
         style="fill:#c9c6c0;fill-opacity:1;fill-rule:evenodd;stroke:none"
         id="path600"
         inkscape:connector-curvature="0" /><g
         id="g602"
         transform="translate(407.3799,573.0649)"><path
           d="m 0,0 v 0 c 2.837,0 5.148,-2.259 5.148,-5.096 v -101.175 c 0,-2.837 -2.311,-5.148 -5.148,-5.148 -2.784,0 -5.096,2.311 -5.096,5.148 V -5.096 C -5.096,-2.259 -2.784,0 0,0"
           style="fill:#323131;fill-opacity:1;fill-rule:evenodd;stroke:none"
           id="path604"
           inkscape:connector-curvature="0" /></g><g
         id="g606"
         transform="translate(410.5318,577.3199)"><path
           d="m 0,0 v 0 c 2.574,1.103 5.568,-0.105 6.671,-2.732 l 39.241,-93.295 c 1.104,-2.574 -0.157,-5.569 -2.731,-6.672 -2.574,-1.103 -5.621,0.158 -6.672,2.732 L -2.732,-6.672 C -3.835,-4.097 -2.574,-1.051 0,0"
           style="fill:#323131;fill-opacity:1;fill-rule:evenodd;stroke:none"
           id="path608"
           inkscape:connector-curvature="0" /></g><g
         id="g610"
         transform="translate(404.2805,577.3199)"><path
           d="m 0,0 v 0 c -2.574,1.103 -5.621,-0.105 -6.671,-2.732 l -39.241,-93.295 c -1.104,-2.574 0.157,-5.569 2.731,-6.672 2.574,-1.103 5.621,0.158 6.672,2.732 L 2.732,-6.672 C 3.835,-4.097 2.574,-1.051 0,0"
           style="fill:#323131;fill-opacity:1;fill-rule:evenodd;stroke:none"
           id="path612"
           inkscape:connector-curvature="0" /></g><path
         d="m 396.716,630.639 h 21.853 v 28.314 h -21.853 z"
         style="fill:#302e2e;fill-opacity:1;fill-rule:evenodd;stroke:none"
         id="path614"
         inkscape:connector-curvature="0" /><g
         id="g616"
         transform="translate(378.4876,645.6107)"><path
           d="m 0,0 c 10.296,0 18.701,8.405 18.701,18.701 0,10.296 -8.405,18.701 -18.701,18.701 -10.296,0 -18.701,-8.405 -18.701,-18.701 C -18.701,8.405 -10.296,0 0,0"
           style="fill:#454545;fill-opacity:1;fill-rule:evenodd;stroke:none"
           id="path618"
           inkscape:connector-curvature="0" /></g><g
         id="g620"
         transform="translate(436.9025,645.6107)"><path
           d="m 0,0 c 10.296,0 18.701,8.405 18.701,18.701 0,10.296 -8.405,18.701 -18.701,18.701 -10.349,0 -18.754,-8.405 -18.754,-18.701 C -18.754,8.405 -10.349,0 0,0"
           style="fill:#454545;fill-opacity:1;fill-rule:evenodd;stroke:none"
           id="path622"
           inkscape:connector-curvature="0" /></g><g
         id="g624"
         transform="translate(370.713,635.3146)"><path
           d="m 0,0 h 72.914 c 4.307,0 7.879,-3.572 7.879,-7.88 v -51.113 c 0,-4.307 -3.572,-7.879 -7.879,-7.879 H 0 c -4.308,0 -7.88,3.572 -7.88,7.879 V -7.88 C -7.88,-3.572 -4.308,0 0,0"
           style="fill:#454545;fill-opacity:1;fill-rule:evenodd;stroke:none"
           id="path626"
           inkscape:connector-curvature="0" /></g><g
         id="g628"
         transform="translate(389.0464,657.1151)"><path
           d="m 0,0 c 3.992,0 7.197,-3.204 7.197,-7.197 0,-3.992 -3.205,-7.197 -7.197,-7.197 -3.94,0 -7.197,3.205 -7.197,7.197 C -7.197,-3.204 -3.94,0 0,0 m 6.041,19.489 c 3.993,0 7.197,-3.204 7.197,-7.197 0,-3.94 -3.204,-7.196 -7.197,-7.196 -3.94,0 -7.197,3.256 -7.197,7.196 0,3.993 3.257,7.197 7.197,7.197 m -16.915,12.345 c 3.94,0 7.197,-3.257 7.197,-7.197 0,-3.992 -3.257,-7.197 -7.197,-7.197 -3.992,0 -7.197,3.205 -7.197,7.197 0,3.94 3.205,7.197 7.197,7.197 M -28.525,19.279 c 3.94,0 7.197,-3.204 7.197,-7.197 0,-3.992 -3.257,-7.197 -7.197,-7.197 -3.992,0 -7.196,3.205 -7.196,7.197 0,3.993 3.204,7.197 7.196,7.197 m 7.407,-19.489 c 3.993,0 7.197,-3.257 7.197,-7.197 0,-3.992 -3.204,-7.197 -7.197,-7.197 -3.939,0 -7.196,3.205 -7.196,7.197 0,3.94 3.257,7.197 7.196,7.197 m 10.559,37.35 c 16.548,0 29.943,-13.396 29.943,-29.943 0,-16.548 -13.395,-29.943 -29.943,-29.943 -16.547,0 -29.943,13.395 -29.943,29.943 0,16.547 13.396,29.943 29.943,29.943"
           style="fill:#d8d5ce;fill-opacity:1;fill-rule:evenodd;stroke:none"
           id="path630"
           inkscape:connector-curvature="0" /></g><g
         id="g632"
         transform="translate(447.4614,657.1151)"><path
           d="m 0,0 c 3.992,0 7.197,-3.204 7.197,-7.197 0,-3.992 -3.205,-7.197 -7.197,-7.197 -3.992,0 -7.197,3.205 -7.197,7.197 C -7.197,-3.204 -3.992,0 0,0 m 6.041,19.489 c 3.992,0 7.197,-3.204 7.197,-7.197 0,-3.94 -3.205,-7.196 -7.197,-7.196 -3.992,0 -7.197,3.256 -7.197,7.196 0,3.993 3.205,7.197 7.197,7.197 m -16.968,12.345 c 3.993,0 7.197,-3.257 7.197,-7.197 0,-3.992 -3.204,-7.197 -7.197,-7.197 -3.939,0 -7.196,3.205 -7.196,7.197 0,3.94 3.257,7.197 7.196,7.197 M -28.525,19.279 c 3.94,0 7.197,-3.204 7.197,-7.197 0,-3.992 -3.257,-7.197 -7.197,-7.197 -3.992,0 -7.196,3.205 -7.196,7.197 0,3.993 3.204,7.197 7.196,7.197 m 7.407,-19.489 c 3.993,0 7.197,-3.257 7.197,-7.197 0,-3.992 -3.204,-7.197 -7.197,-7.197 -3.992,0 -7.196,3.205 -7.196,7.197 0,3.94 3.204,7.197 7.196,7.197 m 10.559,37.35 c 16.495,0 29.943,-13.396 29.943,-29.943 0,-16.548 -13.448,-29.943 -29.943,-29.943 -16.547,0 -29.943,13.395 -29.943,29.943 0,16.547 13.396,29.943 29.943,29.943"
           style="fill:#d8d5ce;fill-opacity:1;fill-rule:evenodd;stroke:none"
           id="path634"
           inkscape:connector-curvature="0" /></g><g
         id="g636"
         transform="translate(390.0446,610.8875)"><path
           d="M 0,0 C 1.996,0.158 3.782,-1.313 3.94,-3.31 4.097,-5.306 2.574,-7.092 0.578,-7.249 -1.418,-7.407 -3.152,-5.884 -3.309,-3.887 -3.467,-1.891 -1.996,-0.158 0,0"
           style="fill:#21120d;fill-opacity:1;fill-rule:evenodd;stroke:none"
           id="path638"
           inkscape:connector-curvature="0" /></g><g
         id="g640"
         transform="translate(419.7773,613.2514)"><path
           d="M 0,0 C 1.996,0.158 3.782,-1.313 3.94,-3.309 4.097,-5.306 2.574,-7.092 0.578,-7.249 -1.418,-7.407 -3.204,-5.883 -3.362,-3.887 -3.52,-1.891 -1.996,-0.158 0,0"
           style="fill:#21120d;fill-opacity:1;fill-rule:evenodd;stroke:none"
           id="path642"
           inkscape:connector-curvature="0" /></g><g
         id="g644"
         transform="translate(389.4667,599.2781)"><path
           d="M 0,0 C 2.837,0.263 5.253,-1.208 5.411,-3.204 5.568,-5.201 3.415,-7.039 0.578,-7.249 -2.259,-7.459 -4.728,-6.041 -4.885,-4.045 -5.043,-1.996 -2.837,-0.21 0,0"
           style="fill:#ff5b6c;fill-opacity:1;fill-rule:evenodd;stroke:none"
           id="path646"
           inkscape:connector-curvature="0" /></g><g
         id="g648"
         transform="translate(423.9273,602.0097)"><path
           d="M 0,0 C 2.837,0.263 5.306,-1.208 5.463,-3.204 5.621,-5.201 3.415,-6.987 0.578,-7.249 -2.259,-7.459 -4.675,-6.041 -4.833,-3.992 -4.99,-1.996 -2.837,-0.21 0,0"
           style="fill:#ff5b6c;fill-opacity:1;fill-rule:evenodd;stroke:none"
           id="path650"
           inkscape:connector-curvature="0" /></g><g
         id="g652"
         transform="translate(400.2882,601.642)"><path
           d="M 0,0 C -0.105,0.263 0,0.578 0.263,0.683 0.525,0.788 0.84,0.63 0.946,0.368 1.313,-0.578 1.944,-1.313 2.732,-1.839 3.52,-2.311 4.465,-2.574 5.411,-2.521 c 0.945,0.105 1.838,0.525 2.574,1.155 0.683,0.631 1.208,1.576 1.418,2.574 0.053,0.315 0.315,0.473 0.578,0.42 0.315,-0.052 0.473,-0.315 0.42,-0.63 C 10.139,-0.21 9.508,-1.313 8.668,-2.101 7.775,-2.942 6.671,-3.415 5.463,-3.52 4.308,-3.625 3.152,-3.309 2.206,-2.679 1.261,-2.049 0.473,-1.156 0,0"
           style="fill:#ffbcac;fill-opacity:1;fill-rule:nonzero;stroke:none"
           id="path654"
           inkscape:connector-curvature="0" /></g></g><path
       id="path4842"
       d="m -175.88956,865.87822 c 35.31149,0 70.62223,0 105.932219,0"
       style="fill:none;fill-rule:evenodd;stroke:#2c3e50;stroke-width:3.75;stroke-linecap:butt;stroke-linejoin:miter;stroke-miterlimit:4;stroke-dasharray:none;stroke-opacity:1"
       inkscape:connector-curvature="0" /><path
       style="fill:none;fill-rule:evenodd;stroke:#2c3e50;stroke-width:3.75;stroke-linecap:butt;stroke-linejoin:miter;stroke-miterlimit:4;stroke-dasharray:none;stroke-opacity:1"
       d="m 219.36044,865.87822 c 35.31149,0 70.62223,0 105.93222,0"
       id="path4846"
       inkscape:connector-curvature="0" /></g></svg>