<svg xmlns="http://www.w3.org/2000/svg" viewBox="0 0 558.24292 232.75615" height="232.756" width="558.243"><g transform="matrix(1.33333 0 0 -1.33333 374.52 410.522)"><path d="M-265.89 207.108h105.933M31.86 207.108h105.933" fill="#697173" fill-rule="evenodd" stroke="#fff" stroke-width="3.75"/><path d="M-7.055 147.299c-10.915 0-19.796 8.88-19.796 19.795v12.78a2.03 2.03 0 1 0 4.06 0v-12.78c0-8.677 7.059-15.736 15.736-15.736a2.03 2.03 0 0 0 0-4.06z" fill="#1b4145"/><circle transform="scale(1 -1)" r="53.79" cy="-210.216" cx="-67.943" fill="#8b7e7f"/><circle transform="scale(1 -1)" r="34.847" cy="-210.216" cx="-67.943" fill="#1b4145"/><path d="M-67.943 271.104c-33.627 0-60.888-27.26-60.888-60.888 0-33.627 27.26-60.887 60.888-60.887 33.627 0 60.888 27.26 60.888 60.887 0 33.628-27.26 60.888-60.888 60.888zm-48.063-45.271c2.701 8.315 11.632 12.866 19.947 10.164s12.866-11.633 10.164-19.948c-2.702-8.315-11.633-12.866-19.948-10.164-8.315 2.702-12.865 11.633-10.163 19.948zm40.47-53c-5.138-7.073-15.038-8.641-22.112-3.502-7.073 5.139-8.641 15.04-3.502 22.112 5.14 7.074 15.04 8.642 22.112 3.503 7.074-5.14 8.642-15.04 3.503-22.113zm-8.238 72.09c0 8.743 7.088 15.83 15.831 15.83 8.743 0 15.83-7.087 15.83-15.83 0-8.744-7.087-15.831-15.83-15.831s-15.83 7.087-15.83 15.83zm45.536-75.592c-7.073-5.139-16.973-3.57-22.112 3.503-5.14 7.073-3.571 16.973 3.502 22.112 7.073 5.139 16.973 3.571 22.112-3.502 5.14-7.074 3.571-16.974-3.502-22.113zm8.194 36.554c-8.315-2.702-17.246 1.849-19.947 10.164-2.702 8.315 1.848 17.246 10.163 19.948 8.315 2.702 17.247-1.849 19.948-10.164 2.702-8.315-1.848-17.246-10.164-19.948z" fill="#c2b8b9"><animateTransform repeatCount="indefinite" dur="4s" to="360 -67.942932 210.21637" from="0 -67.942932 210.21637" type="rotate" attributeName="transform" attributeType="xml"/></path><circle transform="scale(1 -1)" r="8.524" cy="-210.216" cx="-67.943" fill="#8b7e7f"/></g></svg>