<svg xmlns="http://www.w3.org/2000/svg" width="518.243" height="232.521" viewBox="0 0 518.24292 232.52077"><path d="M274.138 232.52c53.918 0 97.856-7.206 97.856-15.926 0-8.81-43.938-15.928-97.856-15.928-53.918 0-97.921 7.118-97.921 15.928 0 8.72 44.003 15.927 97.921 15.927" fill="#009e97" fill-rule="evenodd"/><path d="M300.527 82.414s16.325 6.351 35.695-8.084c19.318-14.488 22.467-36.535 22.467-36.535s-5.565 1.837-6.457-.945c-.944-2.782 5.565-1.837 5.565-1.837s-3.937-4.777-2.257-5.984c1.68-1.208 3.569 4.357 3.569 4.357s-.263-6.877 1.733-6.248c1.941.63-.106 5.617-.106 5.617s3.15-4.147 4.724-2.677c1.628 1.47-1.836 4.2-2.309 4.357-.473.21-.578.263-.578.263s4.83.787 4.096 2.887c-.683 2.1-4.463-.21-4.463-.21s-1.312 21.942-18.583 40.63c-17.27 18.74-44.566 14.803-44.566 14.803z" fill="#ffeab9" fill-rule="evenodd"/><path d="M199.32 26.141l88.923-18.95 31.811 149.658-88.923 18.897z" fill="#ffeab9" fill-rule="evenodd"/><path d="M266.459 179.316l2.047-.472 1.417-.262 2.048-.473c-.263-2.31-.263-6.352 1.207-12.02.314-1.208.577-2.205.787-3.098v-.053l-7.034 1.523-1.418.262-7.086 1.523.052.052c.578.682 1.208 1.523 1.995 2.467 3.622 4.62 5.25 8.294 5.985 10.551m17.27-3.674l2.048-.473 1.416-.262 2.048-.472c-.263-2.31-.263-6.352 1.207-12.021.315-1.207.578-2.205.84-3.097l-.052-.053-7.034 1.522-1.418.316-7.086 1.469.052.053c.577.682 1.207 1.521 1.994 2.467 3.675 4.62 5.25 8.294 5.985 10.551m17.27-3.674l2.047-.473 1.418-.263 2.046-.472c-.21-2.31-.261-6.352 1.209-12.02.314-1.209.577-2.206.839-3.098l-.052-.052-7.035 1.522-1.417.314-7.034 1.47v.053c.578.683 1.207 1.522 1.995 2.467 3.674 4.62 5.249 8.346 5.984 10.552m-88.136-159.79l2.047-.42 1.418-.314 2.1-.473c.682 2.257 2.309 5.984 5.931 10.551.788.945 1.47 1.785 2.048 2.468v.051l-7.087 1.523-1.418.262-7.034 1.523v-.053c.21-.892.526-1.89.787-3.045 1.523-5.721 1.47-9.764 1.208-12.073m17.27-3.674l2.048-.42 1.417-.316 2.1-.42c.682 2.206 2.31 5.932 5.984 10.499a78.926 78.926 0 0 0 1.994 2.467v.053l-7.086 1.522-1.365.316-7.087 1.469v-.052c.21-.893.525-1.89.84-3.045 1.47-5.722 1.418-9.764 1.155-12.073m17.27-3.675l2.048-.42 1.417-.315 2.1-.42c.682 2.205 2.31 5.932 5.984 10.499a77.24 77.24 0 0 0 1.995 2.467v.053l-7.034 1.522-1.417.315-7.087 1.47v-.053c.263-.84.525-1.89.84-3.044 1.47-5.722 1.417-9.764 1.154-12.074m17.27-3.675l2.1-.42 1.365-.314 2.1-.42c.682 2.204 2.31 5.932 5.984 10.498a77.24 77.24 0 0 0 1.995 2.468v.053l-7.034 1.521-1.418.315-7.086 1.47v-.052c.262-.84.525-1.89.84-3.045 1.47-5.67 1.418-9.764 1.155-12.074m-15.486 181.837l2.048-.473 1.417-.262 2.047-.472c-.263-2.31-.263-6.352 1.207-12.022.315-1.207.578-2.204.788-3.096v-.053l-7.034 1.523-1.417.261-7.087 1.523.052.052c.578.683 1.208 1.523 1.996 2.467 3.62 4.568 5.249 8.294 5.983 10.552" fill="#ffeab9" fill-rule="evenodd"/><path d="M267.194 26.194L226.3 34.908c-3.201.682-5.773 2.572-7.453 5.092-1.628 2.572-2.31 5.722-1.628 8.871l20.998 98.792a11.631 11.631 0 0 0 5.09 7.402v.052c2.573 1.628 5.723 2.31 8.872 1.628l40.946-8.715a11.764 11.764 0 0 0 7.4-5.091 11.765 11.765 0 0 0 1.628-8.872l-20.998-98.792a11.763 11.763 0 0 0-5.09-7.401 12.03 12.03 0 0 0-8.872-1.68m-41.417 6.351l40.944-8.713c3.832-.84 7.611 0 10.656 1.994 3.045 1.995 5.354 5.092 6.195 8.925l20.996 98.844c.788 3.779 0 7.611-1.994 10.656a14.405 14.405 0 0 1-8.977 6.194l-40.892 8.661c-3.831.84-7.663 0-10.708-1.994a13.889 13.889 0 0 1-6.142-8.924l-21.05-98.792c-.787-3.832.053-7.664 1.995-10.71h.052a13.897 13.897 0 0 1 8.925-6.14" fill="#f08e6c"/><path d="M243.94 78.162c2.256-.473 4.46.997 4.933 3.255.42 2.257-.997 4.41-3.254 4.881-2.258.473-4.462-.997-4.935-3.202-.42-2.257.998-4.461 3.255-4.934M277.325 71.338c2.257-.473 4.461.945 4.881 3.202.473 2.257-.997 4.462-3.202 4.934-2.257.473-4.461-.997-4.934-3.254-.473-2.257.997-4.462 3.255-4.882" fill="#21120d" fill-rule="evenodd"/><path d="M244.884 91.39c3.202-.63 6.141.683 6.614 2.94.473 2.205-1.733 4.567-4.934 5.25-3.202.629-6.142-.683-6.615-2.887-.472-2.258 1.733-4.62 4.935-5.303M283.624 83.464c3.15-.63 6.141.63 6.614 2.887.42 2.257-1.785 4.62-4.987 5.302-3.149.63-6.142-.683-6.562-2.94-.472-2.204 1.733-4.567 4.935-5.25" fill="#ff5b6c" fill-rule="evenodd"/><path d="M256.8 87.243c-.158-.314-.053-.63.263-.787.262-.158.63-.105.787.21.577.997 1.417 1.785 2.362 2.257.945.473 2.047.63 3.097.42a5.265 5.265 0 0 0 2.782-1.68 5.394 5.394 0 0 0 1.207-3.15.624.624 0 0 1 .63-.524c.368 0 .577.315.577.63a6.601 6.601 0 0 1-1.522 3.78c-.892 1.049-2.047 1.784-3.411 2.046-1.313.316-2.678.105-3.832-.472-1.207-.577-2.206-1.522-2.94-2.73" fill="#ff0045"/><path d="M219.74 105.301l-61.208 35.17s-4.828-2.677-5.669-1.732c-.839.945 3.045 3.937 3.045 3.937s-4.41 3.308-4.41 4.62c0 1.312 5.827-2.1 5.827-2.1s-3.884 4.357-2.572 5.669c1.312 1.313 4.41-4.252 4.41-4.252s1.47 4.882 2.834 4.62c1.365-.21 0-5.25 0-5.25s1.418 2.887 3.36 2.782c1.89-.157-2.835-5.302-2.835-5.302l57.218-25.038zM245.251 172.492c-.472 5.46-9.606 51.706-9.606 51.706l-4.147.367s5.67-52.65 7.087-52.282c1.364.314 6.613.787 6.666.21" fill="#ffeab9" fill-rule="evenodd"/><path d="M236.695 221.836l-5.25-.525s-6.666 2.782-6.457 3.412c.263.682 10.71 1.942 10.71 1.942s1.522-3.464.997-4.829" fill="#ff344e" fill-rule="evenodd"/><path d="M307.666 155.957c.892 5.827 14.12 54.698 14.12 54.698l4.462.105s-9.973-56.01-11.443-55.537c-1.417.42-7.034 1.364-7.14.734" fill="#ffeab9" fill-rule="evenodd"/><path d="M320.737 208.03l5.616-.945s7.35 2.52 7.14 3.203c-.21.734-11.34 2.886-11.34 2.886s-1.89-3.622-1.416-5.144" fill="#ff344e" fill-rule="evenodd"/><path d="M0 113.333h141.243M377 113.333h141.243" fill="none" stroke="#fff" stroke-width="4.9999875"/></svg>